<svg xmlns="http://www.w3.org/2000/svg" xmlns:xlink="http://www.w3.org/1999/xlink" width="206.622" height="68.936" viewBox="0 0 206.622 68.936">
  <defs>
    <clipPath id="clip-path">
      <path id="Trazado_2357" data-name="Trazado 2357" d="M72.437,294.077a11.82,11.82,0,0,0,10.556,3.651,16.3,16.3,0,0,0,9.432-5.862,18.925,18.925,0,0,0,4.467-10.675,16.338,16.338,0,0,0-3.183-11.153,12.733,12.733,0,0,0-9.471-5.019,14.63,14.63,0,0,0-10.813,4.231,25.988,25.988,0,0,0-5.907,9.9,72.235,72.235,0,0,0-3.049,12.82,121.251,121.251,0,0,0-1.65,13.981,66.324,66.324,0,0,0,.005,6.712,24.835,24.835,0,0,0,.422,3.737,6.409,6.409,0,0,0,1.7,3.539,2.983,2.983,0,0,0,2.055.794,3.756,3.756,0,0,0,2.7-1.543,12.549,12.549,0,0,0,2.074-5.905,44.213,44.213,0,0,0,.505-6.876,85.563,85.563,0,0,0-1.107-13.862c-.734-4.559-1.939-9.006-3.065-13.479a49.126,49.126,0,0,0-1.827-6.232,15.339,15.339,0,0,0-3.148-5.219,5.96,5.96,0,0,0-5.192-1.943c-1.911.32-3.211,1.817-4.155,3.4a44.254,44.254,0,0,0-4.685,11.7c-.528,2.06-.942,4.149-1.276,6.248a40.569,40.569,0,0,0-.725,6.666,4.579,4.579,0,0,0,.609,2.681,2.222,2.222,0,0,0,1.9.977,2.6,2.6,0,0,0,1.953-1.152,9.976,9.976,0,0,0,1.034-2.467,23.25,23.25,0,0,1,2.42-5.054,11.55,11.55,0,0,1,4.062-3.618,10.627,10.627,0,0,1,5.005-1.3.891.891,0,0,0,0-1.782,13.031,13.031,0,0,0-9.755,4.671,18.735,18.735,0,0,0-2.782,4.889c-.34.821-.647,1.658-.951,2.494-.079.219-.158.438-.238.657A1.4,1.4,0,0,1,50.2,295a2.5,2.5,0,0,1-.139.219c.088-.125-.011.014-.04.043-.045.046-.092.091-.137.137-.078.066-.076.066.007,0a1.342,1.342,0,0,1-.119.078c-.041.023-.241.095-.033.028-.042.013-.083.029-.126.04-.078.02-.232.005-.015.012h-.188c.214,0,.092.029.022,0-.049-.024-.186-.082.005.016-.055-.03-.109-.064-.169-.095.181.1,0-.009-.055-.055-.039-.035-.119-.164-.021-.015-.043-.065-.083-.131-.12-.2-.116-.212.029.149-.043-.1-.017-.059-.037-.116-.055-.175a5.639,5.639,0,0,1-.106-1.4,39.494,39.494,0,0,1,.682-6.184A58.463,58.463,0,0,1,52.522,275.8a38.816,38.816,0,0,1,2.562-5.439c.762-1.318,1.65-2.68,3.212-2.954a4.416,4.416,0,0,1,3.88,1.79,14.793,14.793,0,0,1,2.666,4.852c.7,1.93,1.149,3.929,1.653,5.915.547,2.157,1.108,4.308,1.628,6.471a84.793,84.793,0,0,1,2.08,12.783,60.268,60.268,0,0,1-.046,12.89,26.937,26.937,0,0,1-.616,3.174,8.5,8.5,0,0,1-.908,2.342,2.4,2.4,0,0,1-1.751,1.328c-.308.011.055.028-.135-.015-.044-.01-.088-.025-.132-.034s-.245-.1-.037,0a1.743,1.743,0,0,1-.177-.09c-.057-.035-.31-.233-.146-.087-.12-.109-.225-.223-.338-.337s-.014-.014.008.015q-.064-.087-.123-.177a4.373,4.373,0,0,1-.225-.383q-.089-.172-.164-.349c.079.184-.022-.061-.03-.082-.028-.076-.055-.152-.082-.229a11.408,11.408,0,0,1-.45-1.879c-.014-.083-.027-.164-.039-.25,0,.01-.036-.262-.019-.13s-.016-.136-.015-.127c-.01-.08-.019-.161-.028-.242-.034-.305-.061-.611-.084-.918-.042-.571-.072-1.144-.1-1.716a79.092,79.092,0,0,1,.685-13.223c.274-2.163.609-4.318.969-6.468.36-2.174.73-4.343,1.227-6.488a40.885,40.885,0,0,1,3.808-10.637,16.116,16.116,0,0,1,7.414-7.294,11.676,11.676,0,0,1,9.813.109,12.494,12.494,0,0,1,6.129,7.9,15.9,15.9,0,0,1-.745,10.393,17.808,17.808,0,0,1-6.5,7.826,12.539,12.539,0,0,1-4.742,1.954,9.868,9.868,0,0,1-4.9-.465,10.073,10.073,0,0,1-4.031-2.708.89.89,0,1,0-1.259,1.259Z" transform="translate(-47.095 -265.002)" fill="none"/>
    </clipPath>
    <clipPath id="clip-path-2">
      <ellipse id="Elipse_1" data-name="Elipse 1" cx="5.609" cy="6.694" rx="5.609" ry="6.694" fill="none"/>
    </clipPath>
  </defs>
  <g id="Logo_AP_2" data-name="Logo AP 2" transform="translate(-0.345 0)">
    <path id="Trazado_2341" data-name="Trazado 2341" d="M1046.136,541.061a5.113,5.113,0,0,1-.876-.058.732.732,0,0,1-.472-.251.991.991,0,0,1-.183-.541q-.029-.348-.029-.927v-10.5a5.633,5.633,0,0,1,.048-.83.779.779,0,0,1,.212-.464.862.862,0,0,1,.471-.2,5.557,5.557,0,0,1,.828-.049h3.348q.557,0,1.183.039a6.411,6.411,0,0,1,1.27.212,5.12,5.12,0,0,1,1.279.55,4.618,4.618,0,0,1,1.193,1.052,5.859,5.859,0,0,1,1.193,2.353,11.074,11.074,0,0,1,.328,2.682,12.685,12.685,0,0,1-.1,1.486,8.434,8.434,0,0,1-.355,1.612,6.769,6.769,0,0,1-.733,1.546,4.523,4.523,0,0,1-1.241,1.284,4.86,4.86,0,0,1-1.029.547,6.572,6.572,0,0,1-1.058.309,6.478,6.478,0,0,1-1.02.125q-.492.02-.895.019Zm.295-1.487h2.838a11.107,11.107,0,0,0,1.187-.055,4.271,4.271,0,0,0,.965-.212,3.439,3.439,0,0,0,.811-.415,3.939,3.939,0,0,0,1.368-1.815,8.076,8.076,0,0,0,.454-2.258q.019-.454.019-.589a8.1,8.1,0,0,0-.338-2.452,5.43,5.43,0,0,0-.782-1.642,3.877,3.877,0,0,0-.647-.675,2.794,2.794,0,0,0-.782-.434,4.442,4.442,0,0,0-1.014-.232,11.621,11.621,0,0,0-1.342-.067h-2.741Z" transform="translate(-989.645 -499.681)"/>
    <path id="Trazado_2342" data-name="Trazado 2342" d="M1291.884,593.912q0-.173.01-.357a1.034,1.034,0,0,1,.077-.348.547.547,0,0,1,.222-.26.793.793,0,0,1,.425-.1.745.745,0,0,1,.415.1.567.567,0,0,1,.212.26,1.057,1.057,0,0,1,.077.348q.01.184.01.357v.773q.251-.383.492-.724a3.478,3.478,0,0,1,.512-.58,2.189,2.189,0,0,1,.618-.386,2.1,2.1,0,0,1,.81-.145,3.076,3.076,0,0,1,.657.077,2.974,2.974,0,0,1,.646.222,1.593,1.593,0,0,1,.493.357.747.747,0,0,1-.048,1.052.721.721,0,0,1-.435.2.849.849,0,0,1-.29-.048c-.09-.032-.187-.065-.289-.1s-.219-.064-.348-.1a1.959,1.959,0,0,0-.463-.048,1.675,1.675,0,0,0-1.091.338,2.211,2.211,0,0,0-.647.917,4.971,4.971,0,0,0-.309,1.351q-.077.773-.077,1.642v3.63a1.11,1.11,0,0,1-.1.511.942.942,0,0,1-.222.289.6.6,0,0,1-.27.136,1.286,1.286,0,0,1-.241.029.81.81,0,0,1-.6-.232.6.6,0,0,1-.222-.425,7.043,7.043,0,0,1-.029-.714Z" transform="translate(-1223.418 -561.702)"/>
    <path id="Trazado_2343" data-name="Trazado 2343" d="M1366.182,745.586a1.073,1.073,0,1,1-.753-.309A1.027,1.027,0,0,1,1366.182,745.586Z" transform="translate(-1291.925 -705.789)"/>
    <path id="Trazado_2344" data-name="Trazado 2344" d="M1521.518,533.107l-1.2,3.089a4.95,4.95,0,0,1-.4.849.727.727,0,0,1-.666.29.844.844,0,0,1-.637-.261.787.787,0,0,1-.251-.55,1.379,1.379,0,0,1,.068-.425q.067-.212.2-.541l4.383-10.87q.155-.405.29-.711a2.235,2.235,0,0,1,.3-.512,1.108,1.108,0,0,1,.386-.309,1.273,1.273,0,0,1,.547-.106,1.333,1.333,0,0,1,.522.106,1.113,1.113,0,0,1,.405.28,1.775,1.775,0,0,1,.319.531q.164.376.3.7l4.537,10.811q.154.367.222.579a1.4,1.4,0,0,1,.067.425.872.872,0,0,1-.251.56.849.849,0,0,1-.676.29.717.717,0,0,1-.666-.3,6.133,6.133,0,0,1-.416-.876l-1.235-3.051Zm5.6-1.486-2.587-6.467-2.49,6.467Z" transform="translate(-1437.511 -495.723)"/>
    <path id="Trazado_2345" data-name="Trazado 2345" d="M1781.718,601.952c0,.283-.01.518-.029.7a.642.642,0,0,1-.2.435.9.9,0,0,1-.6.232.876.876,0,0,1-.618-.232.643.643,0,0,1-.2-.435,7.028,7.028,0,0,1-.029-.7v-4.766a7.214,7.214,0,0,0-.077-1.178,2.237,2.237,0,0,0-.232-.715,1.748,1.748,0,0,0-.753-.724,2.224,2.224,0,0,0-1-.241,2.754,2.754,0,0,0-1.39.377,2.576,2.576,0,0,0-1,1.013,3.347,3.347,0,0,0-.2.4,2.477,2.477,0,0,0-.145.531,7.542,7.542,0,0,0-.087.83q-.029.5-.029,1.294v3.183a5.346,5.346,0,0,1-.038.7.682.682,0,0,1-.212.435.888.888,0,0,1-1.2,0,.644.644,0,0,1-.2-.435c-.019-.186-.029-.421-.029-.7v-7.759a6.609,6.609,0,0,1,.029-.676.682.682,0,0,1,.183-.425,1.635,1.635,0,0,1,.241-.155.828.828,0,0,1,.772.039.584.584,0,0,1,.241.251,1.209,1.209,0,0,1,.1.2.937.937,0,0,1,.048.261c.006.1.012.225.019.367s.01.315.01.521q.192-.25.464-.547a3.7,3.7,0,0,1,.646-.562,3.489,3.489,0,0,1,2.056-.609,3.79,3.79,0,0,1,1.612.319,3.612,3.612,0,0,1,1.2.917,2.166,2.166,0,0,1,.386.637,3.518,3.518,0,0,1,.193.7,5.308,5.308,0,0,1,.067.7q.01.338.01.57Z" transform="translate(-1678.618 -561.713)"/>
    <path id="Trazado_2346" data-name="Trazado 2346" d="M1965.205,536.071a3.613,3.613,0,0,1-.7.57,4.346,4.346,0,0,1-2.394.657,4.025,4.025,0,0,1-2.23-.56,4.348,4.348,0,0,1-1.361-1.38,5.291,5.291,0,0,1-.682-1.737,8.46,8.46,0,0,1-.183-1.651,7.8,7.8,0,0,1,.2-1.7,4.887,4.887,0,0,1,.711-1.67,3.954,3.954,0,0,1,3.5-1.769,4.2,4.2,0,0,1,1.458.232,4.765,4.765,0,0,1,1.071.544,4.029,4.029,0,0,1,.7.589,3.518,3.518,0,0,1,.309.376V524.42c0-.164,0-.334.009-.5a1.425,1.425,0,0,1,.087-.454.7.7,0,0,1,.251-.328.988.988,0,0,1,.965,0,.771.771,0,0,1,.261.328,1.278,1.278,0,0,1,.1.454q.01.251.01.483v11.564a6.528,6.528,0,0,1-.029.686.624.624,0,0,1-.2.415.785.785,0,0,1-.579.232.725.725,0,0,1-.473-.136.806.806,0,0,1-.241-.328,1.177,1.177,0,0,1-.087-.377c-.007-.123-.01-.222-.01-.3v-.6Q1965.486,535.773,1965.205,536.071Zm-1.681-.28a2.625,2.625,0,0,0,1.023-.647,3.453,3.453,0,0,0,.743-1.178,5.868,5.868,0,0,0-.077-3.862,3.553,3.553,0,0,0-.876-1.217,2.834,2.834,0,0,0-1.062-.589,3.587,3.587,0,0,0-.936-.154,2.691,2.691,0,0,0-1.255.29,2.806,2.806,0,0,0-.957.813,3.7,3.7,0,0,0-.6,1.226,5.457,5.457,0,0,0-.2,1.516,5.17,5.17,0,0,0,.3,1.882,3.781,3.781,0,0,0,.743,1.232,2.6,2.6,0,0,0,.985.676,2.96,2.96,0,0,0,1.042.2A3.5,3.5,0,0,0,1963.525,535.791Z" transform="translate(-1852.752 -495.685)"/>
    <path id="Trazado_2347" data-name="Trazado 2347" d="M2179.5,593.912c0-.115,0-.234.009-.357a1.064,1.064,0,0,1,.077-.348.554.554,0,0,1,.222-.26.794.794,0,0,1,.425-.1.75.75,0,0,1,.416.1.571.571,0,0,1,.212.26,1.064,1.064,0,0,1,.077.348q.009.184.009.357v.773q.251-.383.492-.724a3.51,3.51,0,0,1,.512-.58,2.2,2.2,0,0,1,.618-.386,2.1,2.1,0,0,1,.811-.145,3.063,3.063,0,0,1,.657.077,2.991,2.991,0,0,1,.647.222,1.611,1.611,0,0,1,.492.357.747.747,0,0,1-.049,1.052.715.715,0,0,1-.434.2.855.855,0,0,1-.29-.048c-.09-.032-.186-.065-.289-.1s-.219-.064-.348-.1a1.954,1.954,0,0,0-.464-.048,1.675,1.675,0,0,0-1.091.338,2.217,2.217,0,0,0-.647.917,4.971,4.971,0,0,0-.309,1.351q-.077.773-.077,1.642v3.63a1.108,1.108,0,0,1-.1.511.952.952,0,0,1-.222.289.6.6,0,0,1-.27.136,1.29,1.29,0,0,1-.241.029.812.812,0,0,1-.6-.232.6.6,0,0,1-.219-.425,6.972,6.972,0,0,1-.029-.714Z" transform="translate(-2062.461 -561.702)"/>
    <path id="Trazado_2348" data-name="Trazado 2348" d="M2294.862,536.381a5.059,5.059,0,0,0,.289,1.708,3.2,3.2,0,0,0,.707,1.139,2.586,2.586,0,0,0,.985.629,3.444,3.444,0,0,0,1.149.193,3.162,3.162,0,0,0,1.052-.154,2.625,2.625,0,0,0,.753-.406,2.971,2.971,0,0,0,.56-.58q.241-.328.454-.657c.064-.09.148-.2.251-.318a.57.57,0,0,1,.464-.183.6.6,0,0,1,.453.193.626.626,0,0,1,.183.444,1.1,1.1,0,0,1-.106.464,4.394,4.394,0,0,1-.219.425,7.429,7.429,0,0,1-.454.618,3.267,3.267,0,0,1-.743.657,4.5,4.5,0,0,1-1.13.521,5.3,5.3,0,0,1-1.593.212,5.153,5.153,0,0,1-2.134-.406,3.984,3.984,0,0,1-1.473-1.11,4.567,4.567,0,0,1-.85-1.67,7.556,7.556,0,0,1-.273-2.066,7,7,0,0,1,.288-2.036,4.77,4.77,0,0,1,.865-1.66,4.028,4.028,0,0,1,1.461-1.11,4.989,4.989,0,0,1,2.1-.406,4.709,4.709,0,0,1,1.692.274,4.086,4.086,0,0,1,1.211.695,3.73,3.73,0,0,1,.8.942,5.231,5.231,0,0,1,.471,1.023,5.447,5.447,0,0,1,.219.917,5.009,5.009,0,0,1,.057.628,1.21,1.21,0,0,1-.135.628.775.775,0,0,1-.357.319,1.472,1.472,0,0,1-.483.116q-.26.019-.512.019Zm5.812-1.159c-.026-.283-.062-.576-.106-.876a2.931,2.931,0,0,0-.4-1.013,2.563,2.563,0,0,0-2.318-1.276,2.592,2.592,0,0,0-.9.145,3.146,3.146,0,0,0-.7.357,2.337,2.337,0,0,0-.521.483,3.633,3.633,0,0,0-.348.521,2.966,2.966,0,0,0-.338.888q-.087.444-.125.772Zm-3.3-7.1q.174-.328.289-.512a.849.849,0,0,1,.251-.27.657.657,0,0,1,.328-.1q.193-.01.521-.01h.463a2.378,2.378,0,0,1,.454.029c.084.02.126.061.126.126a.335.335,0,0,1-.067.193q-.187.232-.4.444-.5.522-.84.876t-.589.589a2.219,2.219,0,0,1-.435.328.765.765,0,0,1-.357.1.392.392,0,0,1-.319-.125.368.368,0,0,1-.106-.222.514.514,0,0,1,.039-.193,3.439,3.439,0,0,1,.154-.309Z" transform="translate(-2169.927 -499.672)"/>
    <path id="Trazado_2349" data-name="Trazado 2349" d="M2491.7,601.038a2.52,2.52,0,0,1-.56,1.042,3.425,3.425,0,0,1-1.274.876,5.71,5.71,0,0,1-2.249.367,5.573,5.573,0,0,1-1.882-.27,3.591,3.591,0,0,1-1.284-.792,4.22,4.22,0,0,1-.569-.733,1.775,1.775,0,0,1-.28-.965.665.665,0,0,1,.212-.483.707.707,0,0,1,.521-.213.612.612,0,0,1,.493.193,1.851,1.851,0,0,1,.28.464,2.857,2.857,0,0,0,.879,1.139,2.787,2.787,0,0,0,1.747.464,2.67,2.67,0,0,0,1.747-.493,1.431,1.431,0,0,0,.589-1.11,1.245,1.245,0,0,0-.222-.762,1.948,1.948,0,0,0-.547-.5,2.9,2.9,0,0,0-.743-.319q-.415-.116-.782-.212-.772-.193-1.283-.347t-.859-.29a3.63,3.63,0,0,1-.57-.27,3.823,3.823,0,0,1-.434-.309,2.716,2.716,0,0,1-.608-.743,2.077,2.077,0,0,1-.26-1.052,2.6,2.6,0,0,1,.386-1.332,2.815,2.815,0,0,1,1.081-1.04,3.773,3.773,0,0,1,.985-.357,5.946,5.946,0,0,1,1.294-.126,4.968,4.968,0,0,1,1.979.328,3.653,3.653,0,0,1,1.149.743,2.232,2.232,0,0,1,.541.811,2.108,2.108,0,0,1,.135.531,1.263,1.263,0,0,1-.019.174.607.607,0,0,1-.1.232.648.648,0,0,1-.6.289.609.609,0,0,1-.492-.174,2.922,2.922,0,0,1-.338-.579,1.979,1.979,0,0,0-.734-.81,2.674,2.674,0,0,0-1.487-.348,3.037,3.037,0,0,0-1.553.367,1.178,1.178,0,0,0-.5,1.57,1.287,1.287,0,0,0,.445.454,3.681,3.681,0,0,0,.875.4q.56.183,1.429.377a12.288,12.288,0,0,1,1.207.309,4.991,4.991,0,0,1,1.158.521,2.879,2.879,0,0,1,.878.84,2.233,2.233,0,0,1,.348,1.284,3.925,3.925,0,0,1-.127.862Z" transform="translate(-2349.919 -561.714)"/>
    <path id="Trazado_2350" data-name="Trazado 2350" d="M2766.965,539.78q0,.328-.02.589a1.391,1.391,0,0,1-.115.473.9.9,0,0,1-.3.309.846.846,0,0,1-.493.155.947.947,0,0,1-.695-.29.753.753,0,0,1-.2-.482q-.029-.309-.029-.754V528.795a5.132,5.132,0,0,1,.057-.878.712.712,0,0,1,.241-.464.965.965,0,0,1,.519-.174q.336-.029.875-.029h3.289a9.981,9.981,0,0,1,1.7.145,3.52,3.52,0,0,1,2.605,2.018,4.367,4.367,0,0,1,.383,1.853,4.931,4.931,0,0,1-.106.994,4.158,4.158,0,0,1-.336.985,3.762,3.762,0,0,1-.585.868,2.95,2.95,0,0,1-.835.647q-.155.077-.383.183a4.855,4.855,0,0,1-.566.212,5.164,5.164,0,0,1-.8.174,7.528,7.528,0,0,1-1.076.067h-3.132Zm0-11.043v5.176h2.664q.384,0,.956-.058a3.139,3.139,0,0,0,1.091-.318,2.4,2.4,0,0,0,.888-.782,2.49,2.49,0,0,0,.367-1.448,3.143,3.143,0,0,0-.164-.994,2.284,2.284,0,0,0-.512-.859,1.905,1.905,0,0,0-.579-.4,3.578,3.578,0,0,0-.686-.222,3.86,3.86,0,0,0-.714-.086c-.239-.007-.454-.01-.647-.01Z" transform="translate(-2616.024 -499.693)"/>
    <path id="Trazado_2351" data-name="Trazado 2351" d="M2950.6,598.431a5.063,5.063,0,0,0,.29,1.708,3.216,3.216,0,0,0,.7,1.139,2.591,2.591,0,0,0,.985.628,3.451,3.451,0,0,0,1.149.193,3.159,3.159,0,0,0,1.052-.154,2.634,2.634,0,0,0,.753-.405,2.976,2.976,0,0,0,.56-.58q.241-.328.454-.657c.065-.09.148-.2.251-.319a.573.573,0,0,1,.464-.183.6.6,0,0,1,.453.193.627.627,0,0,1,.184.444,1.107,1.107,0,0,1-.106.463,4.492,4.492,0,0,1-.222.425,7.5,7.5,0,0,1-.454.618,3.284,3.284,0,0,1-.743.657,4.518,4.518,0,0,1-1.13.522,5.3,5.3,0,0,1-1.593.212,5.157,5.157,0,0,1-2.134-.406,3.992,3.992,0,0,1-1.474-1.11,4.574,4.574,0,0,1-.849-1.67,7.557,7.557,0,0,1-.274-2.066,7.01,7.01,0,0,1,.288-2.036,4.757,4.757,0,0,1,.865-1.66,4.025,4.025,0,0,1,1.461-1.11,4.989,4.989,0,0,1,2.1-.405,4.707,4.707,0,0,1,1.692.274,4.105,4.105,0,0,1,1.209.692,3.737,3.737,0,0,1,.807.946,5.19,5.19,0,0,1,.471,1.023,5.419,5.419,0,0,1,.219.917,5.052,5.052,0,0,1,.058.628,1.213,1.213,0,0,1-.135.628.779.779,0,0,1-.357.318,1.483,1.483,0,0,1-.483.116q-.261.019-.511.019Zm5.811-1.159c-.026-.283-.061-.576-.106-.876a2.937,2.937,0,0,0-.4-1.013,2.558,2.558,0,0,0-2.317-1.276,2.593,2.593,0,0,0-.9.145,3.146,3.146,0,0,0-.7.357,2.326,2.326,0,0,0-.521.483,3.608,3.608,0,0,0-.347.521,2.952,2.952,0,0,0-.336.887q-.086.444-.125.772Z" transform="translate(-2789.772 -561.722)"/>
    <path id="Trazado_2352" data-name="Trazado 2352" d="M3152.095,593.912q0-.173.01-.357a1.051,1.051,0,0,1,.077-.348.549.549,0,0,1,.222-.26.8.8,0,0,1,.425-.1.746.746,0,0,1,.415.1.569.569,0,0,1,.213.26,1.077,1.077,0,0,1,.077.348q.008.184.009.357v.773q.251-.383.492-.724a3.513,3.513,0,0,1,.512-.58,2.189,2.189,0,0,1,.618-.386,2.1,2.1,0,0,1,.811-.145,3.074,3.074,0,0,1,.657.077,3.005,3.005,0,0,1,.647.222,1.6,1.6,0,0,1,.492.357.747.747,0,0,1-.048,1.052.718.718,0,0,1-.436.2.853.853,0,0,1-.289-.048c-.09-.032-.187-.065-.29-.1s-.219-.064-.347-.1a1.96,1.96,0,0,0-.464-.048,1.674,1.674,0,0,0-1.091.338,2.212,2.212,0,0,0-.647.917,4.988,4.988,0,0,0-.309,1.351q-.077.773-.077,1.642v3.63a1.1,1.1,0,0,1-.1.511.953.953,0,0,1-.221.29.6.6,0,0,1-.271.136,1.287,1.287,0,0,1-.241.029.811.811,0,0,1-.6-.232.6.6,0,0,1-.222-.425,7.044,7.044,0,0,1-.029-.714Z" transform="translate(-2981.83 -561.703)"/>
    <path id="Trazado_2353" data-name="Trazado 2353" d="M3267.387,598.43a5.052,5.052,0,0,0,.29,1.708,3.22,3.22,0,0,0,.7,1.139,2.6,2.6,0,0,0,.985.628,3.447,3.447,0,0,0,1.149.193,3.159,3.159,0,0,0,1.052-.154,2.634,2.634,0,0,0,.753-.406,2.955,2.955,0,0,0,.56-.58q.242-.328.454-.657.1-.135.251-.318a.573.573,0,0,1,.464-.183.6.6,0,0,1,.454.193.628.628,0,0,1,.183.444,1.112,1.112,0,0,1-.106.464,4.563,4.563,0,0,1-.222.425,7.422,7.422,0,0,1-.454.618,3.3,3.3,0,0,1-.743.657,4.505,4.505,0,0,1-1.13.521,5.3,5.3,0,0,1-1.593.212,5.154,5.154,0,0,1-2.134-.406,3.991,3.991,0,0,1-1.474-1.11,4.564,4.564,0,0,1-.849-1.67,7.548,7.548,0,0,1-.274-2.066,7.019,7.019,0,0,1,.289-2.036,4.753,4.753,0,0,1,.865-1.66,4.022,4.022,0,0,1,1.461-1.11,4.99,4.99,0,0,1,2.1-.406,4.712,4.712,0,0,1,1.692.274,4.1,4.1,0,0,1,1.211.694,3.73,3.73,0,0,1,.807.946,5.164,5.164,0,0,1,.472,1.023,5.394,5.394,0,0,1,.219.917,5.053,5.053,0,0,1,.058.628,1.213,1.213,0,0,1-.135.628.78.78,0,0,1-.357.319,1.484,1.484,0,0,1-.483.116q-.26.019-.511.019Zm5.811-1.159c-.026-.283-.061-.576-.106-.876a2.932,2.932,0,0,0-.4-1.013,2.558,2.558,0,0,0-2.317-1.276,2.593,2.593,0,0,0-.9.145,3.155,3.155,0,0,0-.705.357,2.343,2.343,0,0,0-.521.483,3.6,3.6,0,0,0-.347.521,2.945,2.945,0,0,0-.338.888q-.087.444-.126.772Z" transform="translate(-3089.226 -561.722)"/>
    <path id="Trazado_2354" data-name="Trazado 2354" d="M3468.732,529.912a.91.91,0,0,1-1.313,0,.926.926,0,1,1,1.313,0Zm.173,11.031c0,.27-.006.46-.019.57a1.079,1.079,0,0,1-.055.26.752.752,0,0,1-.315.405.847.847,0,0,1-.448.136.794.794,0,0,1-.478-.126.7.7,0,0,1-.248-.328,1.573,1.573,0,0,1-.1-.444q-.02-.241-.02-.473v-7.721a5.009,5.009,0,0,1,.038-.7.821.821,0,0,1,.191-.425.849.849,0,0,1,.63-.251.745.745,0,0,1,.468.116,1.081,1.081,0,0,1,.239.27.922.922,0,0,1,.1.444c.006.193.009.373.009.54Z" transform="translate(-3279.644 -500.704)"/>
    <path id="Trazado_2355" data-name="Trazado 2355" d="M3546.524,593.912q0-.173.01-.357a1.038,1.038,0,0,1,.077-.348.548.548,0,0,1,.222-.26.794.794,0,0,1,.424-.1.748.748,0,0,1,.416.1.564.564,0,0,1,.212.26,1.063,1.063,0,0,1,.077.348q.01.184.01.357v.773q.251-.383.493-.724a3.49,3.49,0,0,1,.512-.58,2.178,2.178,0,0,1,.618-.386,2.1,2.1,0,0,1,.81-.145,3.075,3.075,0,0,1,.657.077,2.99,2.99,0,0,1,.646.222,1.593,1.593,0,0,1,.492.357.747.747,0,0,1-.048,1.052.715.715,0,0,1-.435.2.85.85,0,0,1-.289-.048c-.09-.032-.187-.065-.29-.1s-.219-.064-.348-.1a1.958,1.958,0,0,0-.463-.048,1.676,1.676,0,0,0-1.091.338,2.206,2.206,0,0,0-.646.917,4.98,4.98,0,0,0-.31,1.351q-.077.773-.077,1.642v3.63a1.108,1.108,0,0,1-.1.511.947.947,0,0,1-.222.29.6.6,0,0,1-.271.136,1.292,1.292,0,0,1-.241.029.811.811,0,0,1-.6-.232.6.6,0,0,1-.223-.425,7.115,7.115,0,0,1-.028-.714Z" transform="translate(-3354.675 -561.703)"/>
    <path id="Trazado_2356" data-name="Trazado 2356" d="M3662.571,602.2a4.876,4.876,0,0,1-.831.541,5.887,5.887,0,0,1-1.139.444,5.353,5.353,0,0,1-1.457.183,3.748,3.748,0,0,1-1.438-.251,3.059,3.059,0,0,1-1.014-.657,2.57,2.57,0,0,1-.6-.917,2.887,2.887,0,0,1-.193-1.033,2.533,2.533,0,0,1,.347-1.39,2.779,2.779,0,0,1,.849-.859,3.672,3.672,0,0,1,1.072-.463c.38-.1.717-.177,1.013-.242q.174-.038.58-.115t.85-.152q.444-.077.84-.155c.263-.051.447-.09.55-.115l.415-.116q.2-.057.531-.174-.021-.5-.068-.965a2.07,2.07,0,0,0-.261-.83,1.444,1.444,0,0,0-.666-.579,3.1,3.1,0,0,0-1.284-.213,5.675,5.675,0,0,0-.878.068,3.288,3.288,0,0,0-.811.231,2.477,2.477,0,0,0-.676.435,1.736,1.736,0,0,0-.454.657,3.652,3.652,0,0,1-.29.569.593.593,0,0,1-.541.241.758.758,0,0,1-.531-.2.661.661,0,0,1-.222-.511,2.344,2.344,0,0,1,.155-.667,2.377,2.377,0,0,1,.618-.907,4.083,4.083,0,0,1,1.3-.8,5.86,5.86,0,0,1,2.211-.348,6.391,6.391,0,0,1,2.249.319,2.635,2.635,0,0,1,1.226.879,2.809,2.809,0,0,1,.5,1.313,12.721,12.721,0,0,1,.1,1.621q0,.193-.01.647t-.019.956q-.011.5-.02.936t-.01.608a4.911,4.911,0,0,0,.087,1.062,3.936,3.936,0,0,0,.183.6c.013.052.048.171.106.357a1.753,1.753,0,0,1,.087.512.586.586,0,0,1-.241.454.859.859,0,0,1-.57.2.617.617,0,0,1-.425-.155,1.48,1.48,0,0,1-.308-.4,2.6,2.6,0,0,1-.222-.531c-.058-.193-.113-.38-.164-.56Q3662.911,601.924,3662.571,602.2Zm-.106-4.113c-.18.058-.4.12-.656.184q-.908.212-1.622.338t-1.313.28a1.939,1.939,0,0,0-.676.309,1.542,1.542,0,0,0-.386.415,1.444,1.444,0,0,0-.183.434,1.413,1.413,0,0,0,.058.907,1.581,1.581,0,0,0,.328.531,1.762,1.762,0,0,0,.589.406,2.163,2.163,0,0,0,.888.164,4.318,4.318,0,0,0,.84-.086,4.454,4.454,0,0,0,.849-.261,3.3,3.3,0,0,0,.763-.444,2.1,2.1,0,0,0,.56-.657,2.9,2.9,0,0,0,.358-1.168q.067-.665.068-1.515Q3662.735,598,3662.465,598.091Z" transform="translate(-3458.067 -561.76)"/>
    <g id="Grupo_8" data-name="Grupo 8" transform="translate(0.345 13.206)" clip-path="url(#clip-path)">
      <rect id="Rectángulo_1" data-name="Rectángulo 1" width="0.241" height="55.936" transform="translate(-0.019 -0.179)" fill="#f0cf52"/>
      <rect id="Rectángulo_2" data-name="Rectángulo 2" width="0.218" height="55.936" transform="translate(0.222 -0.179)" fill="#f0cf52"/>
      <rect id="Rectángulo_3" data-name="Rectángulo 3" width="0.218" height="55.936" transform="translate(0.441 -0.179)" fill="#efce51"/>
      <rect id="Rectángulo_4" data-name="Rectángulo 4" width="0.218" height="55.936" transform="translate(0.659 -0.179)" fill="#eecc51"/>
      <rect id="Rectángulo_5" data-name="Rectángulo 5" width="0.218" height="55.936" transform="translate(0.878 -0.179)" fill="#ebc94d"/>
      <rect id="Rectángulo_6" data-name="Rectángulo 6" width="0.218" height="55.936" transform="translate(1.096 -0.179)" fill="#eac74d"/>
      <rect id="Rectángulo_7" data-name="Rectángulo 7" width="0.218" height="55.936" transform="translate(1.315 -0.179)" fill="#e9c64c"/>
      <rect id="Rectángulo_8" data-name="Rectángulo 8" width="0.218" height="55.936" transform="translate(1.533 -0.179)" fill="#e8c449"/>
      <rect id="Rectángulo_9" data-name="Rectángulo 9" width="0.218" height="55.936" transform="translate(1.752 -0.179)" fill="#e6c148"/>
      <rect id="Rectángulo_10" data-name="Rectángulo 10" width="0.218" height="55.936" transform="translate(1.97 -0.179)" fill="#e6bf47"/>
      <rect id="Rectángulo_11" data-name="Rectángulo 11" width="0.218" height="55.936" transform="translate(2.189 -0.179)" fill="#e5be46"/>
      <rect id="Rectángulo_12" data-name="Rectángulo 12" width="0.218" height="55.936" transform="translate(2.408 -0.179)" fill="#e3bc43"/>
      <rect id="Rectángulo_13" data-name="Rectángulo 13" width="0.218" height="55.936" transform="translate(2.626 -0.179)" fill="#e0ba42"/>
      <rect id="Rectángulo_14" data-name="Rectángulo 14" width="0.218" height="55.936" transform="translate(2.845 -0.179)" fill="#deb841"/>
      <rect id="Rectángulo_15" data-name="Rectángulo 15" width="0.218" height="55.936" transform="translate(3.063 -0.179)" fill="#ddb63f"/>
      <rect id="Rectángulo_16" data-name="Rectángulo 16" width="0.218" height="55.936" transform="translate(3.282 -0.179)" fill="#dcb53e"/>
      <rect id="Rectángulo_17" data-name="Rectángulo 17" width="0.218" height="55.936" transform="translate(3.5 -0.179)" fill="#dbb33c"/>
      <rect id="Rectángulo_18" data-name="Rectángulo 18" width="0.218" height="55.936" transform="translate(3.719 -0.179)" fill="#d9b23b"/>
      <rect id="Rectángulo_19" data-name="Rectángulo 19" width="0.218" height="55.936" transform="translate(3.937 -0.179)" fill="#d9b03a"/>
      <rect id="Rectángulo_20" data-name="Rectángulo 20" width="0.218" height="55.936" transform="translate(4.156 -0.179)" fill="#d8af38"/>
      <rect id="Rectángulo_21" data-name="Rectángulo 21" width="0.218" height="55.936" transform="translate(4.374 -0.179)" fill="#d6ad37"/>
      <rect id="Rectángulo_22" data-name="Rectángulo 22" width="0.218" height="55.936" transform="translate(4.593 -0.179)" fill="#d6ad36"/>
      <rect id="Rectángulo_23" data-name="Rectángulo 23" width="0.218" height="55.936" transform="translate(4.812 -0.179)" fill="#d4a935"/>
      <rect id="Rectángulo_24" data-name="Rectángulo 24" width="0.218" height="55.936" transform="translate(5.03 -0.179)" fill="#d3a933"/>
      <rect id="Rectángulo_25" data-name="Rectángulo 25" width="0.218" height="55.936" transform="translate(5.249 -0.179)" fill="#d3a832"/>
      <rect id="Rectángulo_26" data-name="Rectángulo 26" width="0.218" height="55.936" transform="translate(5.467 -0.179)" fill="#d0a530"/>
      <rect id="Rectángulo_27" data-name="Rectángulo 27" width="0.218" height="55.936" transform="translate(5.686 -0.179)" fill="#cea32e"/>
      <rect id="Rectángulo_28" data-name="Rectángulo 28" width="0.218" height="55.936" transform="translate(5.904 -0.179)" fill="#cea32d"/>
      <rect id="Rectángulo_29" data-name="Rectángulo 29" width="0.218" height="55.936" transform="translate(6.123 -0.179)" fill="#cda12c"/>
      <rect id="Rectángulo_30" data-name="Rectángulo 30" width="0.218" height="55.936" transform="translate(6.341 -0.179)" fill="#cca02c"/>
      <rect id="Rectángulo_31" data-name="Rectángulo 31" width="0.218" height="55.936" transform="translate(6.56 -0.179)" fill="#cb9f2b"/>
      <rect id="Rectángulo_32" data-name="Rectángulo 32" width="0.218" height="55.936" transform="translate(6.778 -0.179)" fill="#ca9e2a"/>
      <rect id="Rectángulo_33" data-name="Rectángulo 33" width="0.218" height="55.936" transform="translate(6.997 -0.179)" fill="#c99c2a"/>
      <rect id="Rectángulo_34" data-name="Rectángulo 34" width="0.218" height="55.936" transform="translate(7.216 -0.179)" fill="#c89b29"/>
      <rect id="Rectángulo_35" data-name="Rectángulo 35" width="0.218" height="55.936" transform="translate(7.434 -0.179)" fill="#c79a28"/>
      <rect id="Rectángulo_36" data-name="Rectángulo 36" width="0.218" height="55.936" transform="translate(7.653 -0.179)" fill="#c69a27"/>
      <rect id="Rectángulo_37" data-name="Rectángulo 37" width="0.218" height="55.936" transform="translate(7.871 -0.179)" fill="#c69926"/>
      <rect id="Rectángulo_38" data-name="Rectángulo 38" width="0.218" height="55.936" transform="translate(8.09 -0.179)" fill="#c59826"/>
      <rect id="Rectángulo_39" data-name="Rectángulo 39" width="0.218" height="55.936" transform="translate(8.309 -0.179)" fill="#c39626"/>
      <rect id="Rectángulo_40" data-name="Rectángulo 40" width="0.218" height="55.936" transform="translate(8.527 -0.179)" fill="#c39525"/>
      <rect id="Rectángulo_41" data-name="Rectángulo 41" width="0.218" height="55.936" transform="translate(8.745 -0.179)" fill="#c39525"/>
      <rect id="Rectángulo_42" data-name="Rectángulo 42" width="0.218" height="55.936" transform="translate(8.964 -0.179)" fill="#c39424"/>
      <rect id="Rectángulo_43" data-name="Rectángulo 43" width="0.218" height="55.936" transform="translate(9.182 -0.179)" fill="#c09324"/>
      <rect id="Rectángulo_44" data-name="Rectángulo 44" width="0.218" height="55.936" transform="translate(9.401 -0.179)" fill="#c19223"/>
      <rect id="Rectángulo_45" data-name="Rectángulo 45" width="0.218" height="55.936" transform="translate(9.62 -0.179)" fill="#bf9122"/>
      <rect id="Rectángulo_46" data-name="Rectángulo 46" width="0.218" height="55.936" transform="translate(9.838 -0.179)" fill="#bf9022"/>
      <rect id="Rectángulo_47" data-name="Rectángulo 47" width="0.218" height="55.936" transform="translate(10.057 -0.179)" fill="#bd8f21"/>
      <rect id="Rectángulo_48" data-name="Rectángulo 48" width="0.218" height="55.936" transform="translate(10.275 -0.179)" fill="#bd8e21"/>
      <rect id="Rectángulo_49" data-name="Rectángulo 49" width="0.218" height="55.936" transform="translate(10.494 -0.179)" fill="#bd8d21"/>
      <rect id="Rectángulo_50" data-name="Rectángulo 50" width="0.218" height="55.936" transform="translate(10.713 -0.179)" fill="#bc8d20"/>
      <rect id="Rectángulo_51" data-name="Rectángulo 51" width="0.218" height="55.936" transform="translate(10.931 -0.179)" fill="#bb8b1e"/>
      <rect id="Rectángulo_52" data-name="Rectángulo 52" width="0.218" height="55.936" transform="translate(11.149 -0.179)" fill="#ba8a1e"/>
      <rect id="Rectángulo_53" data-name="Rectángulo 53" width="0.218" height="55.936" transform="translate(11.368 -0.179)" fill="#ba8a1c"/>
      <rect id="Rectángulo_54" data-name="Rectángulo 54" width="0.218" height="55.936" transform="translate(11.586 -0.179)" fill="#ba8a1d"/>
      <rect id="Rectángulo_55" data-name="Rectángulo 55" width="0.218" height="55.936" transform="translate(11.805 -0.179)" fill="#b8881d"/>
      <rect id="Rectángulo_56" data-name="Rectángulo 56" width="0.218" height="55.936" transform="translate(12.024 -0.179)" fill="#b8871c"/>
      <rect id="Rectángulo_57" data-name="Rectángulo 57" width="0.218" height="55.936" transform="translate(12.242 -0.179)" fill="#b8871c"/>
      <rect id="Rectángulo_58" data-name="Rectángulo 58" width="0.218" height="55.936" transform="translate(12.461 -0.179)" fill="#b8861b"/>
      <rect id="Rectángulo_59" data-name="Rectángulo 59" width="0.218" height="55.936" transform="translate(12.679 -0.179)" fill="#b6861b"/>
      <rect id="Rectángulo_60" data-name="Rectángulo 60" width="0.218" height="55.936" transform="translate(12.898 -0.179)" fill="#b78519"/>
      <rect id="Rectángulo_61" data-name="Rectángulo 61" width="0.218" height="55.936" transform="translate(13.117 -0.179)" fill="#b78519"/>
      <rect id="Rectángulo_62" data-name="Rectángulo 62" width="0.218" height="55.936" transform="translate(13.335 -0.179)" fill="#b68418"/>
      <rect id="Rectángulo_63" data-name="Rectángulo 63" width="0.218" height="55.936" transform="translate(13.553 -0.179)" fill="#b68418"/>
      <rect id="Rectángulo_64" data-name="Rectángulo 64" width="0.218" height="55.936" transform="translate(13.772 -0.179)" fill="#b68319"/>
      <rect id="Rectángulo_65" data-name="Rectángulo 65" width="0.218" height="55.936" transform="translate(13.991 -0.179)" fill="#b58317"/>
      <rect id="Rectángulo_66" data-name="Rectángulo 66" width="0.218" height="55.936" transform="translate(14.209 -0.179)" fill="#b58217"/>
      <rect id="Rectángulo_67" data-name="Rectángulo 67" width="0.218" height="55.936" transform="translate(14.428 -0.179)" fill="#b48218"/>
      <rect id="Rectángulo_68" data-name="Rectángulo 68" width="0.218" height="55.936" transform="translate(14.646 -0.179)" fill="#b48218"/>
      <rect id="Rectángulo_69" data-name="Rectángulo 69" width="0.218" height="55.936" transform="translate(14.865 -0.179)" fill="#b48218"/>
      <rect id="Rectángulo_70" data-name="Rectángulo 70" width="0.218" height="55.936" transform="translate(15.083 -0.179)" fill="#b48218"/>
      <rect id="Rectángulo_71" data-name="Rectángulo 71" width="0.218" height="55.936" transform="translate(15.302 -0.179)" fill="#b48218"/>
      <rect id="Rectángulo_72" data-name="Rectángulo 72" width="0.218" height="55.936" transform="translate(15.521 -0.179)" fill="#b48218"/>
      <rect id="Rectángulo_73" data-name="Rectángulo 73" width="0.218" height="55.936" transform="translate(15.739 -0.179)" fill="#b48218"/>
      <rect id="Rectángulo_74" data-name="Rectángulo 74" width="0.218" height="55.936" transform="translate(15.957 -0.179)" fill="#b48218"/>
      <rect id="Rectángulo_75" data-name="Rectángulo 75" width="0.218" height="55.936" transform="translate(16.176 -0.179)" fill="#b48218"/>
      <rect id="Rectángulo_76" data-name="Rectángulo 76" width="0.218" height="55.936" transform="translate(16.395 -0.179)" fill="#b38116"/>
      <rect id="Rectángulo_77" data-name="Rectángulo 77" width="0.268" height="55.936" transform="translate(16.613 -0.179)" fill="#b38116"/>
      <rect id="Rectángulo_78" data-name="Rectángulo 78" width="0.268" height="55.936" transform="translate(16.881 -0.179)" fill="#b48218"/>
      <rect id="Rectángulo_79" data-name="Rectángulo 79" width="0.268" height="55.936" transform="translate(17.149 -0.179)" fill="#b48218"/>
      <rect id="Rectángulo_80" data-name="Rectángulo 80" width="0.268" height="55.936" transform="translate(17.417 -0.179)" fill="#b48218"/>
      <rect id="Rectángulo_81" data-name="Rectángulo 81" width="0.268" height="55.936" transform="translate(17.685 -0.179)" fill="#b58318"/>
      <rect id="Rectángulo_82" data-name="Rectángulo 82" width="0.268" height="55.936" transform="translate(17.954 -0.179)" fill="#b68418"/>
      <rect id="Rectángulo_83" data-name="Rectángulo 83" width="0.268" height="55.936" transform="translate(18.221 -0.179)" fill="#b6841a"/>
      <rect id="Rectángulo_84" data-name="Rectángulo 84" width="0.268" height="55.936" transform="translate(18.489 -0.179)" fill="#b6861b"/>
      <rect id="Rectángulo_85" data-name="Rectángulo 85" width="0.268" height="55.936" transform="translate(18.758 -0.179)" fill="#b6861c"/>
      <rect id="Rectángulo_86" data-name="Rectángulo 86" width="0.268" height="55.936" transform="translate(19.026 -0.179)" fill="#b8871c"/>
      <rect id="Rectángulo_87" data-name="Rectángulo 87" width="0.268" height="55.936" transform="translate(19.294 -0.179)" fill="#b8891c"/>
      <rect id="Rectángulo_88" data-name="Rectángulo 88" width="0.268" height="55.936" transform="translate(19.561 -0.179)" fill="#b8881e"/>
      <rect id="Rectángulo_89" data-name="Rectángulo 89" width="0.268" height="55.936" transform="translate(19.83 -0.179)" fill="#b9891e"/>
      <rect id="Rectángulo_90" data-name="Rectángulo 90" width="0.268" height="55.936" transform="translate(20.098 -0.179)" fill="#b9891e"/>
      <rect id="Rectángulo_91" data-name="Rectángulo 91" width="0.268" height="55.936" transform="translate(20.366 -0.179)" fill="#bb8b21"/>
      <rect id="Rectángulo_92" data-name="Rectángulo 92" width="0.268" height="55.936" transform="translate(20.634 -0.179)" fill="#bb8b21"/>
      <rect id="Rectángulo_93" data-name="Rectángulo 93" width="0.268" height="55.936" transform="translate(20.902 -0.179)" fill="#bd8e22"/>
      <rect id="Rectángulo_94" data-name="Rectángulo 94" width="0.268" height="55.936" transform="translate(21.17 -0.179)" fill="#bd8e23"/>
      <rect id="Rectángulo_95" data-name="Rectángulo 95" width="0.268" height="55.936" transform="translate(21.438 -0.179)" fill="#be8f24"/>
      <rect id="Rectángulo_96" data-name="Rectángulo 96" width="0.268" height="55.936" transform="translate(21.706 -0.179)" fill="#bf9025"/>
      <rect id="Rectángulo_97" data-name="Rectángulo 97" width="0.268" height="55.936" transform="translate(21.974 -0.179)" fill="#be9125"/>
      <rect id="Rectángulo_98" data-name="Rectángulo 98" width="0.268" height="55.936" transform="translate(22.242 -0.179)" fill="#bf9226"/>
      <rect id="Rectángulo_99" data-name="Rectángulo 99" width="0.268" height="55.936" transform="translate(22.51 -0.179)" fill="#c09327"/>
      <rect id="Rectángulo_100" data-name="Rectángulo 100" width="0.268" height="55.936" transform="translate(22.778 -0.179)" fill="#c09327"/>
      <rect id="Rectángulo_101" data-name="Rectángulo 101" width="0.268" height="55.936" transform="translate(23.046 -0.179)" fill="#c29529"/>
      <rect id="Rectángulo_102" data-name="Rectángulo 102" width="0.268" height="55.936" transform="translate(23.314 -0.179)" fill="#c2952a"/>
      <rect id="Rectángulo_103" data-name="Rectángulo 103" width="0.268" height="55.936" transform="translate(23.582 -0.179)" fill="#c3972b"/>
      <rect id="Rectángulo_104" data-name="Rectángulo 104" width="0.268" height="55.936" transform="translate(23.85 -0.179)" fill="#c3972b"/>
      <rect id="Rectángulo_105" data-name="Rectángulo 105" width="0.268" height="55.936" transform="translate(24.118 -0.179)" fill="#c3982d"/>
      <rect id="Rectángulo_106" data-name="Rectángulo 106" width="0.268" height="55.936" transform="translate(24.386 -0.179)" fill="#c4992e"/>
      <rect id="Rectángulo_107" data-name="Rectángulo 107" width="0.268" height="55.936" transform="translate(24.655 -0.179)" fill="#c59a2f"/>
      <rect id="Rectángulo_108" data-name="Rectángulo 108" width="0.268" height="55.936" transform="translate(24.923 -0.179)" fill="#c69b30"/>
      <rect id="Rectángulo_109" data-name="Rectángulo 109" width="0.268" height="55.936" transform="translate(25.19 -0.179)" fill="#c69c31"/>
      <rect id="Rectángulo_110" data-name="Rectángulo 110" width="0.268" height="55.936" transform="translate(25.459 -0.179)" fill="#c79e32"/>
      <rect id="Rectángulo_111" data-name="Rectángulo 111" width="0.268" height="55.936" transform="translate(25.727 -0.179)" fill="#c79e33"/>
      <rect id="Rectángulo_112" data-name="Rectángulo 112" width="0.268" height="55.936" transform="translate(25.995 -0.179)" fill="#c99f34"/>
      <rect id="Rectángulo_113" data-name="Rectángulo 113" width="0.268" height="55.936" transform="translate(26.263 -0.179)" fill="#c9a034"/>
      <rect id="Rectángulo_114" data-name="Rectángulo 114" width="0.268" height="55.936" transform="translate(26.531 -0.179)" fill="#caa134"/>
      <rect id="Rectángulo_115" data-name="Rectángulo 115" width="0.268" height="55.936" transform="translate(26.799 -0.179)" fill="#caa235"/>
      <rect id="Rectángulo_116" data-name="Rectángulo 116" width="0.268" height="55.936" transform="translate(27.067 -0.179)" fill="#cca337"/>
      <rect id="Rectángulo_117" data-name="Rectángulo 117" width="0.268" height="55.936" transform="translate(27.335 -0.179)" fill="#cba438"/>
      <rect id="Rectángulo_118" data-name="Rectángulo 118" width="0.268" height="55.936" transform="translate(27.603 -0.179)" fill="#cda63a"/>
      <rect id="Rectángulo_119" data-name="Rectángulo 119" width="0.268" height="55.936" transform="translate(27.871 -0.179)" fill="#cea83c"/>
      <rect id="Rectángulo_120" data-name="Rectángulo 120" width="0.268" height="55.936" transform="translate(28.139 -0.179)" fill="#d0a83d"/>
      <rect id="Rectángulo_121" data-name="Rectángulo 121" width="0.268" height="55.936" transform="translate(28.407 -0.179)" fill="#d0aa3e"/>
      <rect id="Rectángulo_122" data-name="Rectángulo 122" width="0.268" height="55.936" transform="translate(28.675 -0.179)" fill="#d0aa3f"/>
      <rect id="Rectángulo_123" data-name="Rectángulo 123" width="0.268" height="55.936" transform="translate(28.943 -0.179)" fill="#d2ac41"/>
      <rect id="Rectángulo_124" data-name="Rectángulo 124" width="0.268" height="55.936" transform="translate(29.211 -0.179)" fill="#d2ad42"/>
      <rect id="Rectángulo_125" data-name="Rectángulo 125" width="0.268" height="55.936" transform="translate(29.479 -0.179)" fill="#d4af43"/>
      <rect id="Rectángulo_126" data-name="Rectángulo 126" width="0.268" height="55.936" transform="translate(29.747 -0.179)" fill="#d4af43"/>
      <rect id="Rectángulo_127" data-name="Rectángulo 127" width="0.268" height="55.936" transform="translate(30.015 -0.179)" fill="#d4b044"/>
      <rect id="Rectángulo_128" data-name="Rectángulo 128" width="0.268" height="55.936" transform="translate(30.284 -0.179)" fill="#d6b145"/>
      <rect id="Rectángulo_129" data-name="Rectángulo 129" width="0.268" height="55.936" transform="translate(30.552 -0.179)" fill="#d6b347"/>
      <rect id="Rectángulo_130" data-name="Rectángulo 130" width="0.268" height="55.936" transform="translate(30.819 -0.179)" fill="#d7b448"/>
      <rect id="Rectángulo_131" data-name="Rectángulo 131" width="0.268" height="55.936" transform="translate(31.087 -0.179)" fill="#d8b649"/>
      <rect id="Rectángulo_132" data-name="Rectángulo 132" width="0.268" height="55.936" transform="translate(31.356 -0.179)" fill="#d9b64a"/>
      <rect id="Rectángulo_133" data-name="Rectángulo 133" width="0.268" height="55.936" transform="translate(31.624 -0.179)" fill="#dab84c"/>
      <rect id="Rectángulo_134" data-name="Rectángulo 134" width="0.268" height="55.936" transform="translate(31.892 -0.179)" fill="#dbb94c"/>
      <rect id="Rectángulo_135" data-name="Rectángulo 135" width="0.268" height="55.936" transform="translate(32.159 -0.179)" fill="#daba4e"/>
      <rect id="Rectángulo_136" data-name="Rectángulo 136" width="0.268" height="55.936" transform="translate(32.428 -0.179)" fill="#dcbb4f"/>
      <rect id="Rectángulo_137" data-name="Rectángulo 137" width="0.268" height="55.936" transform="translate(32.696 -0.179)" fill="#ddbd51"/>
      <rect id="Rectángulo_138" data-name="Rectángulo 138" width="0.268" height="55.936" transform="translate(32.964 -0.179)" fill="#e0bf52"/>
      <rect id="Rectángulo_139" data-name="Rectángulo 139" width="0.268" height="55.936" transform="translate(33.232 -0.179)" fill="#e0c054"/>
      <rect id="Rectángulo_140" data-name="Rectángulo 140" width="0.268" height="55.936" transform="translate(33.5 -0.179)" fill="#e1c156"/>
      <rect id="Rectángulo_141" data-name="Rectángulo 141" width="0.268" height="55.936" transform="translate(33.768 -0.179)" fill="#e1c356"/>
      <rect id="Rectángulo_142" data-name="Rectángulo 142" width="0.268" height="55.936" transform="translate(34.036 -0.179)" fill="#e3c457"/>
      <rect id="Rectángulo_143" data-name="Rectángulo 143" width="0.268" height="55.936" transform="translate(34.304 -0.179)" fill="#e4c658"/>
      <rect id="Rectángulo_144" data-name="Rectángulo 144" width="0.268" height="55.936" transform="translate(34.572 -0.179)" fill="#e4c659"/>
      <rect id="Rectángulo_145" data-name="Rectángulo 145" width="0.268" height="55.936" transform="translate(34.84 -0.179)" fill="#e4c75b"/>
      <rect id="Rectángulo_146" data-name="Rectángulo 146" width="0.268" height="55.936" transform="translate(35.108 -0.179)" fill="#e5c85c"/>
      <rect id="Rectángulo_147" data-name="Rectángulo 147" width="0.183" height="55.936" transform="translate(35.376 -0.179)" fill="#e5c85c"/>
      <rect id="Rectángulo_148" data-name="Rectángulo 148" width="0.183" height="55.936" transform="translate(35.56 -0.179)" fill="#e5c85c"/>
      <rect id="Rectángulo_149" data-name="Rectángulo 149" width="0.183" height="55.936" transform="translate(35.743 -0.179)" fill="#e5c85c"/>
      <rect id="Rectángulo_150" data-name="Rectángulo 150" width="0.183" height="55.936" transform="translate(35.926 -0.179)" fill="#e5c85c"/>
      <rect id="Rectángulo_151" data-name="Rectángulo 151" width="0.183" height="55.936" transform="translate(36.109 -0.179)" fill="#e5c85c"/>
      <rect id="Rectángulo_152" data-name="Rectángulo 152" width="0.183" height="55.936" transform="translate(36.292 -0.179)" fill="#e5c85c"/>
      <rect id="Rectángulo_153" data-name="Rectángulo 153" width="0.183" height="55.936" transform="translate(36.476 -0.179)" fill="#e4c75b"/>
      <rect id="Rectángulo_154" data-name="Rectángulo 154" width="0.183" height="55.936" transform="translate(36.659 -0.179)" fill="#e4c75b"/>
      <rect id="Rectángulo_155" data-name="Rectángulo 155" width="0.183" height="55.936" transform="translate(36.842 -0.179)" fill="#e4c75b"/>
      <rect id="Rectángulo_156" data-name="Rectángulo 156" width="0.183" height="55.936" transform="translate(37.025 -0.179)" fill="#e4c75a"/>
      <rect id="Rectángulo_157" data-name="Rectángulo 157" width="0.183" height="55.936" transform="translate(37.208 -0.179)" fill="#e4c659"/>
      <rect id="Rectángulo_158" data-name="Rectángulo 158" width="0.183" height="55.936" transform="translate(37.392 -0.179)" fill="#e4c659"/>
      <rect id="Rectángulo_159" data-name="Rectángulo 159" width="0.183" height="55.936" transform="translate(37.575 -0.179)" fill="#e4c658"/>
      <rect id="Rectángulo_160" data-name="Rectángulo 160" width="0.183" height="55.936" transform="translate(37.758 -0.179)" fill="#e4c458"/>
      <rect id="Rectángulo_161" data-name="Rectángulo 161" width="0.183" height="55.936" transform="translate(37.941 -0.179)" fill="#e3c458"/>
      <rect id="Rectángulo_162" data-name="Rectángulo 162" width="0.183" height="55.936" transform="translate(38.124 -0.179)" fill="#e3c457"/>
      <rect id="Rectángulo_163" data-name="Rectángulo 163" width="0.183" height="55.936" transform="translate(38.308 -0.179)" fill="#e1c357"/>
      <rect id="Rectángulo_164" data-name="Rectángulo 164" width="0.183" height="55.936" transform="translate(38.491 -0.179)" fill="#e1c356"/>
      <rect id="Rectángulo_165" data-name="Rectángulo 165" width="0.183" height="55.936" transform="translate(38.674 -0.179)" fill="#e1c156"/>
      <rect id="Rectángulo_166" data-name="Rectángulo 166" width="0.183" height="55.936" transform="translate(38.857 -0.179)" fill="#e1c156"/>
      <rect id="Rectángulo_167" data-name="Rectángulo 167" width="0.183" height="55.936" transform="translate(39.041 -0.179)" fill="#e0c055"/>
      <rect id="Rectángulo_168" data-name="Rectángulo 168" width="0.183" height="55.936" transform="translate(39.224 -0.179)" fill="#e0be53"/>
      <rect id="Rectángulo_169" data-name="Rectángulo 169" width="0.183" height="55.936" transform="translate(39.407 -0.179)" fill="#e0bf52"/>
      <rect id="Rectángulo_170" data-name="Rectángulo 170" width="0.183" height="55.936" transform="translate(39.59 -0.179)" fill="#e0bf52"/>
      <rect id="Rectángulo_171" data-name="Rectángulo 171" width="0.183" height="55.936" transform="translate(39.773 -0.179)" fill="#ddbc51"/>
      <rect id="Rectángulo_172" data-name="Rectángulo 172" width="0.183" height="55.936" transform="translate(39.957 -0.179)" fill="#ddbb50"/>
      <rect id="Rectángulo_173" data-name="Rectángulo 173" width="0.183" height="55.936" transform="translate(40.14 -0.179)" fill="#ddbb50"/>
      <rect id="Rectángulo_174" data-name="Rectángulo 174" width="0.183" height="55.936" transform="translate(40.323 -0.179)" fill="#dbb94e"/>
      <rect id="Rectángulo_175" data-name="Rectángulo 175" width="0.183" height="55.936" transform="translate(40.506 -0.179)" fill="#dbb94e"/>
      <rect id="Rectángulo_176" data-name="Rectángulo 176" width="0.183" height="55.936" transform="translate(40.689 -0.179)" fill="#dbb84d"/>
      <rect id="Rectángulo_177" data-name="Rectángulo 177" width="0.183" height="55.936" transform="translate(40.873 -0.179)" fill="#dab74c"/>
      <rect id="Rectángulo_178" data-name="Rectángulo 178" width="0.183" height="55.936" transform="translate(41.056 -0.179)" fill="#dab64b"/>
      <rect id="Rectángulo_179" data-name="Rectángulo 179" width="0.183" height="55.936" transform="translate(41.239 -0.179)" fill="#d9b54a"/>
      <rect id="Rectángulo_180" data-name="Rectángulo 180" width="0.183" height="55.936" transform="translate(41.422 -0.179)" fill="#d8b449"/>
      <rect id="Rectángulo_181" data-name="Rectángulo 181" width="0.183" height="55.936" transform="translate(41.605 -0.179)" fill="#d7b349"/>
      <rect id="Rectángulo_182" data-name="Rectángulo 182" width="0.183" height="55.936" transform="translate(41.789 -0.179)" fill="#d7b248"/>
      <rect id="Rectángulo_183" data-name="Rectángulo 183" width="0.183" height="55.936" transform="translate(41.972 -0.179)" fill="#d6b147"/>
      <rect id="Rectángulo_184" data-name="Rectángulo 184" width="0.183" height="55.936" transform="translate(42.155 -0.179)" fill="#d6b146"/>
      <rect id="Rectángulo_185" data-name="Rectángulo 185" width="0.183" height="55.936" transform="translate(42.338 -0.179)" fill="#d6b045"/>
      <rect id="Rectángulo_186" data-name="Rectángulo 186" width="0.183" height="55.936" transform="translate(42.522 -0.179)" fill="#d4ae43"/>
      <rect id="Rectángulo_187" data-name="Rectángulo 187" width="0.183" height="55.936" transform="translate(42.705 -0.179)" fill="#d4ae43"/>
      <rect id="Rectángulo_188" data-name="Rectángulo 188" width="0.183" height="55.936" transform="translate(42.888 -0.179)" fill="#d2ad42"/>
      <rect id="Rectángulo_189" data-name="Rectángulo 189" width="0.183" height="55.936" transform="translate(43.071 -0.179)" fill="#d2ab41"/>
      <rect id="Rectángulo_190" data-name="Rectángulo 190" width="0.183" height="55.936" transform="translate(43.254 -0.179)" fill="#d1aa40"/>
      <rect id="Rectángulo_191" data-name="Rectángulo 191" width="0.183" height="55.936" transform="translate(43.438 -0.179)" fill="#d2a93f"/>
      <rect id="Rectángulo_192" data-name="Rectángulo 192" width="0.183" height="55.936" transform="translate(43.621 -0.179)" fill="#d1a83d"/>
      <rect id="Rectángulo_193" data-name="Rectángulo 193" width="0.183" height="55.936" transform="translate(43.804 -0.179)" fill="#cfa73d"/>
      <rect id="Rectángulo_194" data-name="Rectángulo 194" width="0.183" height="55.936" transform="translate(43.987 -0.179)" fill="#cea53b"/>
      <rect id="Rectángulo_195" data-name="Rectángulo 195" width="0.183" height="55.936" transform="translate(44.17 -0.179)" fill="#cea53a"/>
      <rect id="Rectángulo_196" data-name="Rectángulo 196" width="0.183" height="55.936" transform="translate(44.354 -0.179)" fill="#cda238"/>
      <rect id="Rectángulo_197" data-name="Rectángulo 197" width="0.183" height="55.936" transform="translate(44.537 -0.179)" fill="#cca138"/>
      <rect id="Rectángulo_198" data-name="Rectángulo 198" width="0.183" height="55.936" transform="translate(44.72 -0.179)" fill="#cba137"/>
      <rect id="Rectángulo_199" data-name="Rectángulo 199" width="0.183" height="55.936" transform="translate(44.903 -0.179)" fill="#ca9f35"/>
      <rect id="Rectángulo_200" data-name="Rectángulo 200" width="0.183" height="55.936" transform="translate(45.086 -0.179)" fill="#ca9e35"/>
      <rect id="Rectángulo_201" data-name="Rectángulo 201" width="0.183" height="55.936" transform="translate(45.27 -0.179)" fill="#c99c34"/>
      <rect id="Rectángulo_202" data-name="Rectángulo 202" width="0.183" height="55.936" transform="translate(45.453 -0.179)" fill="#c89c33"/>
      <rect id="Rectángulo_203" data-name="Rectángulo 203" width="0.183" height="55.936" transform="translate(45.636 -0.179)" fill="#c79a32"/>
      <rect id="Rectángulo_204" data-name="Rectángulo 204" width="0.183" height="55.936" transform="translate(45.819 -0.179)" fill="#c6992f"/>
      <rect id="Rectángulo_205" data-name="Rectángulo 205" width="0.183" height="55.936" transform="translate(46.003 -0.179)" fill="#c6992f"/>
      <rect id="Rectángulo_206" data-name="Rectángulo 206" width="0.183" height="55.936" transform="translate(46.186 -0.179)" fill="#c4972d"/>
      <rect id="Rectángulo_207" data-name="Rectángulo 207" width="0.183" height="55.936" transform="translate(46.369 -0.179)" fill="#c4952c"/>
      <rect id="Rectángulo_208" data-name="Rectángulo 208" width="0.183" height="55.936" transform="translate(46.552 -0.179)" fill="#c3952b"/>
      <rect id="Rectángulo_209" data-name="Rectángulo 209" width="0.183" height="55.936" transform="translate(46.735 -0.179)" fill="#c2932a"/>
      <rect id="Rectángulo_210" data-name="Rectángulo 210" width="0.183" height="55.936" transform="translate(46.919 -0.179)" fill="#c19129"/>
      <rect id="Rectángulo_211" data-name="Rectángulo 211" width="0.183" height="55.936" transform="translate(47.102 -0.179)" fill="#c09027"/>
      <rect id="Rectángulo_212" data-name="Rectángulo 212" width="0.183" height="55.936" transform="translate(47.285 -0.179)" fill="#bf8e26"/>
      <rect id="Rectángulo_213" data-name="Rectángulo 213" width="0.183" height="55.936" transform="translate(47.468 -0.179)" fill="#be8d26"/>
      <rect id="Rectángulo_214" data-name="Rectángulo 214" width="0.183" height="55.936" transform="translate(47.651 -0.179)" fill="#be8b25"/>
      <rect id="Rectángulo_215" data-name="Rectángulo 215" width="0.183" height="55.936" transform="translate(47.835 -0.179)" fill="#bb8923"/>
      <rect id="Rectángulo_216" data-name="Rectángulo 216" width="0.183" height="55.936" transform="translate(48.018 -0.179)" fill="#bb8922"/>
      <rect id="Rectángulo_217" data-name="Rectángulo 217" width="0.183" height="55.936" transform="translate(48.201 -0.179)" fill="#bb8721"/>
      <rect id="Rectángulo_218" data-name="Rectángulo 218" width="0.183" height="55.936" transform="translate(48.384 -0.179)" fill="#b9861f"/>
      <rect id="Rectángulo_219" data-name="Rectángulo 219" width="0.183" height="55.936" transform="translate(48.567 -0.179)" fill="#b9841f"/>
      <rect id="Rectángulo_220" data-name="Rectángulo 220" width="0.183" height="55.936" transform="translate(48.751 -0.179)" fill="#b7831e"/>
      <rect id="Rectángulo_221" data-name="Rectángulo 221" width="0.183" height="55.936" transform="translate(48.934 -0.179)" fill="#b6811d"/>
      <rect id="Rectángulo_222" data-name="Rectángulo 222" width="0.183" height="55.936" transform="translate(49.117 -0.179)" fill="#b6801c"/>
      <rect id="Rectángulo_223" data-name="Rectángulo 223" width="0.183" height="55.936" transform="translate(49.3 -0.179)" fill="#b6801a"/>
      <rect id="Rectángulo_224" data-name="Rectángulo 224" width="0.183" height="55.936" transform="translate(49.484 -0.179)" fill="#b47f19"/>
      <rect id="Rectángulo_225" data-name="Rectángulo 225" width="0.183" height="55.936" transform="translate(49.667 -0.179)" fill="#b47d18"/>
      <rect id="Rectángulo_226" data-name="Rectángulo 226" width="0.26" height="55.936" transform="translate(49.85 -0.179)" fill="#b47d18"/>
    </g>
    <g id="Grupo_9" data-name="Grupo 9" transform="translate(15.901 0)" clip-path="url(#clip-path-2)">
      <rect id="Rectángulo_227" data-name="Rectángulo 227" width="0.05" height="13.389" transform="translate(0 0)" fill="#f0cf52"/>
      <rect id="Rectángulo_228" data-name="Rectángulo 228" width="0.049" height="13.389" transform="translate(0.05 0)" fill="#f0cf52"/>
      <rect id="Rectángulo_229" data-name="Rectángulo 229" width="0.049" height="13.389" transform="translate(0.099 0)" fill="#efce51"/>
      <rect id="Rectángulo_230" data-name="Rectángulo 230" width="0.049" height="13.389" transform="translate(0.148 0)" fill="#eecc51"/>
      <rect id="Rectángulo_231" data-name="Rectángulo 231" width="0.049" height="13.389" transform="translate(0.198 0)" fill="#ebc94d"/>
      <rect id="Rectángulo_232" data-name="Rectángulo 232" width="0.049" height="13.389" transform="translate(0.247 0)" fill="#eac74d"/>
      <rect id="Rectángulo_233" data-name="Rectángulo 233" width="0.049" height="13.389" transform="translate(0.296 0)" fill="#e9c64c"/>
      <rect id="Rectángulo_234" data-name="Rectángulo 234" width="0.049" height="13.389" transform="translate(0.345 0)" fill="#e8c449"/>
      <rect id="Rectángulo_235" data-name="Rectángulo 235" width="0.049" height="13.389" transform="translate(0.394 0)" fill="#e6c148"/>
      <rect id="Rectángulo_236" data-name="Rectángulo 236" width="0.049" height="13.389" transform="translate(0.443 0)" fill="#e6bf47"/>
      <rect id="Rectángulo_237" data-name="Rectángulo 237" width="0.049" height="13.389" transform="translate(0.493 0)" fill="#e5be46"/>
      <rect id="Rectángulo_238" data-name="Rectángulo 238" width="0.049" height="13.389" transform="translate(0.542 0)" fill="#e3bc43"/>
      <rect id="Rectángulo_239" data-name="Rectángulo 239" width="0.049" height="13.389" transform="translate(0.591 0)" fill="#e0ba42"/>
      <rect id="Rectángulo_240" data-name="Rectángulo 240" width="0.049" height="13.389" transform="translate(0.64 0)" fill="#deb841"/>
      <rect id="Rectángulo_241" data-name="Rectángulo 241" width="0.049" height="13.389" transform="translate(0.689 0)" fill="#ddb63f"/>
      <rect id="Rectángulo_242" data-name="Rectángulo 242" width="0.049" height="13.389" transform="translate(0.738 0)" fill="#dcb53e"/>
      <rect id="Rectángulo_243" data-name="Rectángulo 243" width="0.049" height="13.389" transform="translate(0.787 0)" fill="#dbb33c"/>
      <rect id="Rectángulo_244" data-name="Rectángulo 244" width="0.049" height="13.389" transform="translate(0.837 0)" fill="#d9b23b"/>
      <rect id="Rectángulo_245" data-name="Rectángulo 245" width="0.049" height="13.389" transform="translate(0.886 0)" fill="#d9b03a"/>
      <rect id="Rectángulo_246" data-name="Rectángulo 246" width="0.049" height="13.389" transform="translate(0.935 0)" fill="#d8af38"/>
      <rect id="Rectángulo_247" data-name="Rectángulo 247" width="0.049" height="13.389" transform="translate(0.984 0)" fill="#d6ad37"/>
      <rect id="Rectángulo_248" data-name="Rectángulo 248" width="0.049" height="13.389" transform="translate(1.034 0)" fill="#d6ad36"/>
      <rect id="Rectángulo_249" data-name="Rectángulo 249" width="0.049" height="13.389" transform="translate(1.082 0)" fill="#d4a935"/>
      <rect id="Rectángulo_250" data-name="Rectángulo 250" width="0.049" height="13.389" transform="translate(1.132 0)" fill="#d3a933"/>
      <rect id="Rectángulo_251" data-name="Rectángulo 251" width="0.049" height="13.389" transform="translate(1.181 0)" fill="#d3a832"/>
      <rect id="Rectángulo_252" data-name="Rectángulo 252" width="0.049" height="13.389" transform="translate(1.23 0)" fill="#d0a530"/>
      <rect id="Rectángulo_253" data-name="Rectángulo 253" width="0.049" height="13.389" transform="translate(1.279 0)" fill="#cea32e"/>
      <rect id="Rectángulo_254" data-name="Rectángulo 254" width="0.049" height="13.389" transform="translate(1.329 0)" fill="#cea32d"/>
      <rect id="Rectángulo_255" data-name="Rectángulo 255" width="0.049" height="13.389" transform="translate(1.378 0)" fill="#cda12c"/>
      <rect id="Rectángulo_256" data-name="Rectángulo 256" width="0.049" height="13.389" transform="translate(1.427 0)" fill="#cca02c"/>
      <rect id="Rectángulo_257" data-name="Rectángulo 257" width="0.049" height="13.389" transform="translate(1.476 0)" fill="#cb9f2b"/>
      <rect id="Rectángulo_258" data-name="Rectángulo 258" width="0.049" height="13.389" transform="translate(1.525 0)" fill="#ca9e2a"/>
      <rect id="Rectángulo_259" data-name="Rectángulo 259" width="0.049" height="13.389" transform="translate(1.574 0)" fill="#c99c2a"/>
      <rect id="Rectángulo_260" data-name="Rectángulo 260" width="0.049" height="13.389" transform="translate(1.624 0)" fill="#c89b29"/>
      <rect id="Rectángulo_261" data-name="Rectángulo 261" width="0.049" height="13.389" transform="translate(1.673 0)" fill="#c79a28"/>
      <rect id="Rectángulo_262" data-name="Rectángulo 262" width="0.049" height="13.389" transform="translate(1.722 0)" fill="#c69a27"/>
      <rect id="Rectángulo_263" data-name="Rectángulo 263" width="0.049" height="13.389" transform="translate(1.771 0)" fill="#c69926"/>
      <rect id="Rectángulo_264" data-name="Rectángulo 264" width="0.049" height="13.389" transform="translate(1.821 0)" fill="#c59826"/>
      <rect id="Rectángulo_265" data-name="Rectángulo 265" width="0.049" height="13.389" transform="translate(1.869 0)" fill="#c39626"/>
      <rect id="Rectángulo_266" data-name="Rectángulo 266" width="0.049" height="13.389" transform="translate(1.919 0)" fill="#c39525"/>
      <rect id="Rectángulo_267" data-name="Rectángulo 267" width="0.049" height="13.389" transform="translate(1.968 0)" fill="#c39525"/>
      <rect id="Rectángulo_268" data-name="Rectángulo 268" width="0.049" height="13.389" transform="translate(2.017 0)" fill="#c39424"/>
      <rect id="Rectángulo_269" data-name="Rectángulo 269" width="0.049" height="13.389" transform="translate(2.066 0)" fill="#c09324"/>
      <rect id="Rectángulo_270" data-name="Rectángulo 270" width="0.049" height="13.389" transform="translate(2.116 0)" fill="#c19223"/>
      <rect id="Rectángulo_271" data-name="Rectángulo 271" width="0.049" height="13.389" transform="translate(2.165 0)" fill="#bf9122"/>
      <rect id="Rectángulo_272" data-name="Rectángulo 272" width="0.049" height="13.389" transform="translate(2.214 0)" fill="#bf9022"/>
      <rect id="Rectángulo_273" data-name="Rectángulo 273" width="0.049" height="13.389" transform="translate(2.263 0)" fill="#bd8f21"/>
      <rect id="Rectángulo_274" data-name="Rectángulo 274" width="0.049" height="13.389" transform="translate(2.312 0)" fill="#bd8e21"/>
      <rect id="Rectángulo_275" data-name="Rectángulo 275" width="0.049" height="13.389" transform="translate(2.361 0)" fill="#bd8d21"/>
      <rect id="Rectángulo_276" data-name="Rectángulo 276" width="0.049" height="13.389" transform="translate(2.411 0)" fill="#bc8d20"/>
      <rect id="Rectángulo_277" data-name="Rectángulo 277" width="0.049" height="13.389" transform="translate(2.46 0)" fill="#bb8b1e"/>
      <rect id="Rectángulo_278" data-name="Rectángulo 278" width="0.049" height="13.389" transform="translate(2.509 0)" fill="#ba8a1e"/>
      <rect id="Rectángulo_279" data-name="Rectángulo 279" width="0.049" height="13.389" transform="translate(2.558 0)" fill="#ba8a1c"/>
      <rect id="Rectángulo_280" data-name="Rectángulo 280" width="0.049" height="13.389" transform="translate(2.608 0)" fill="#ba8a1d"/>
      <rect id="Rectángulo_281" data-name="Rectángulo 281" width="0.049" height="13.389" transform="translate(2.656 0)" fill="#b8881d"/>
      <rect id="Rectángulo_282" data-name="Rectángulo 282" width="0.049" height="13.389" transform="translate(2.706 0)" fill="#b8871c"/>
      <rect id="Rectángulo_283" data-name="Rectángulo 283" width="0.049" height="13.389" transform="translate(2.755 0)" fill="#b8871c"/>
      <rect id="Rectángulo_284" data-name="Rectángulo 284" width="0.049" height="13.389" transform="translate(2.804 0)" fill="#b8861b"/>
      <rect id="Rectángulo_285" data-name="Rectángulo 285" width="0.049" height="13.389" transform="translate(2.853 0)" fill="#b6861b"/>
      <rect id="Rectángulo_286" data-name="Rectángulo 286" width="0.049" height="13.389" transform="translate(2.903 0)" fill="#b78519"/>
      <rect id="Rectángulo_287" data-name="Rectángulo 287" width="0.049" height="13.389" transform="translate(2.952 0)" fill="#b78519"/>
      <rect id="Rectángulo_288" data-name="Rectángulo 288" width="0.049" height="13.389" transform="translate(3.001 0)" fill="#b68418"/>
      <rect id="Rectángulo_289" data-name="Rectángulo 289" width="0.049" height="13.389" transform="translate(3.05 0)" fill="#b68418"/>
      <rect id="Rectángulo_290" data-name="Rectángulo 290" width="0.049" height="13.389" transform="translate(3.099 0)" fill="#b68319"/>
      <rect id="Rectángulo_291" data-name="Rectángulo 291" width="0.049" height="13.389" transform="translate(3.148 0)" fill="#b58317"/>
      <rect id="Rectángulo_292" data-name="Rectángulo 292" width="0.049" height="13.389" transform="translate(3.198 0)" fill="#b58217"/>
      <rect id="Rectángulo_293" data-name="Rectángulo 293" width="0.049" height="13.389" transform="translate(3.247 0)" fill="#b48218"/>
      <rect id="Rectángulo_294" data-name="Rectángulo 294" width="0.049" height="13.389" transform="translate(3.296 0)" fill="#b48218"/>
      <rect id="Rectángulo_295" data-name="Rectángulo 295" width="0.049" height="13.389" transform="translate(3.345 0)" fill="#b48218"/>
      <rect id="Rectángulo_296" data-name="Rectángulo 296" width="0.049" height="13.389" transform="translate(3.395 0)" fill="#b48218"/>
      <rect id="Rectángulo_297" data-name="Rectángulo 297" width="0.049" height="13.389" transform="translate(3.443 0)" fill="#b48218"/>
      <rect id="Rectángulo_298" data-name="Rectángulo 298" width="0.049" height="13.389" transform="translate(3.492 0)" fill="#b48218"/>
      <rect id="Rectángulo_299" data-name="Rectángulo 299" width="0.049" height="13.389" transform="translate(3.542 0)" fill="#b48218"/>
      <rect id="Rectángulo_300" data-name="Rectángulo 300" width="0.049" height="13.389" transform="translate(3.591 0)" fill="#b48218"/>
      <rect id="Rectángulo_301" data-name="Rectángulo 301" width="0.049" height="13.389" transform="translate(3.64 0)" fill="#b48218"/>
      <rect id="Rectángulo_302" data-name="Rectángulo 302" width="0.049" height="13.389" transform="translate(3.69 0)" fill="#b38116"/>
      <rect id="Rectángulo_303" data-name="Rectángulo 303" width="0.06" height="13.389" transform="translate(3.739 0)" fill="#b38116"/>
      <rect id="Rectángulo_304" data-name="Rectángulo 304" width="0.06" height="13.389" transform="translate(3.799 0)" fill="#b48218"/>
      <rect id="Rectángulo_305" data-name="Rectángulo 305" width="0.06" height="13.389" transform="translate(3.859 0)" fill="#b48218"/>
      <rect id="Rectángulo_306" data-name="Rectángulo 306" width="0.06" height="13.389" transform="translate(3.919 0)" fill="#b48218"/>
      <rect id="Rectángulo_307" data-name="Rectángulo 307" width="0.06" height="13.389" transform="translate(3.98 0)" fill="#b58318"/>
      <rect id="Rectángulo_308" data-name="Rectángulo 308" width="0.06" height="13.389" transform="translate(4.04 0)" fill="#b68418"/>
      <rect id="Rectángulo_309" data-name="Rectángulo 309" width="0.06" height="13.389" transform="translate(4.1 0)" fill="#b6841a"/>
      <rect id="Rectángulo_310" data-name="Rectángulo 310" width="0.06" height="13.389" transform="translate(4.161 0)" fill="#b6861b"/>
      <rect id="Rectángulo_311" data-name="Rectángulo 311" width="0.06" height="13.389" transform="translate(4.221 0)" fill="#b6861c"/>
      <rect id="Rectángulo_312" data-name="Rectángulo 312" width="0.06" height="13.389" transform="translate(4.282 0)" fill="#b8871c"/>
      <rect id="Rectángulo_313" data-name="Rectángulo 313" width="0.06" height="13.389" transform="translate(4.342 0)" fill="#b8891c"/>
      <rect id="Rectángulo_314" data-name="Rectángulo 314" width="0.06" height="13.389" transform="translate(4.402 0)" fill="#b8881e"/>
      <rect id="Rectángulo_315" data-name="Rectángulo 315" width="0.06" height="13.389" transform="translate(4.463 0)" fill="#b9891e"/>
      <rect id="Rectángulo_316" data-name="Rectángulo 316" width="0.06" height="13.389" transform="translate(4.523 0)" fill="#b9891e"/>
      <rect id="Rectángulo_317" data-name="Rectángulo 317" width="0.06" height="13.389" transform="translate(4.583 0)" fill="#bb8b21"/>
      <rect id="Rectángulo_318" data-name="Rectángulo 318" width="0.06" height="13.389" transform="translate(4.643 0)" fill="#bb8b21"/>
      <rect id="Rectángulo_319" data-name="Rectángulo 319" width="0.06" height="13.389" transform="translate(4.704 0)" fill="#bd8e22"/>
      <rect id="Rectángulo_320" data-name="Rectángulo 320" width="0.06" height="13.389" transform="translate(4.764 0)" fill="#bd8e23"/>
      <rect id="Rectángulo_321" data-name="Rectángulo 321" width="0.06" height="13.389" transform="translate(4.824 0)" fill="#be8f24"/>
      <rect id="Rectángulo_322" data-name="Rectángulo 322" width="0.06" height="13.389" transform="translate(4.885 0)" fill="#bf9025"/>
      <rect id="Rectángulo_323" data-name="Rectángulo 323" width="0.06" height="13.389" transform="translate(4.945 0)" fill="#be9125"/>
      <rect id="Rectángulo_324" data-name="Rectángulo 324" width="0.06" height="13.389" transform="translate(5.006 0)" fill="#bf9226"/>
      <rect id="Rectángulo_325" data-name="Rectángulo 325" width="0.06" height="13.389" transform="translate(5.066 0)" fill="#c09327"/>
      <rect id="Rectángulo_326" data-name="Rectángulo 326" width="0.06" height="13.389" transform="translate(5.126 0)" fill="#c09327"/>
      <rect id="Rectángulo_327" data-name="Rectángulo 327" width="0.06" height="13.389" transform="translate(5.186 0)" fill="#c29529"/>
      <rect id="Rectángulo_328" data-name="Rectángulo 328" width="0.06" height="13.389" transform="translate(5.247 0)" fill="#c2952a"/>
      <rect id="Rectángulo_329" data-name="Rectángulo 329" width="0.06" height="13.389" transform="translate(5.307 0)" fill="#c3972b"/>
      <rect id="Rectángulo_330" data-name="Rectángulo 330" width="0.06" height="13.389" transform="translate(5.367 0)" fill="#c3972b"/>
      <rect id="Rectángulo_331" data-name="Rectángulo 331" width="0.06" height="13.389" transform="translate(5.428 0)" fill="#c3982d"/>
      <rect id="Rectángulo_332" data-name="Rectángulo 332" width="0.06" height="13.389" transform="translate(5.488 0)" fill="#c4992e"/>
      <rect id="Rectángulo_333" data-name="Rectángulo 333" width="0.06" height="13.389" transform="translate(5.548 0)" fill="#c59a2f"/>
      <rect id="Rectángulo_334" data-name="Rectángulo 334" width="0.06" height="13.389" transform="translate(5.609 0)" fill="#c69b30"/>
      <rect id="Rectángulo_335" data-name="Rectángulo 335" width="0.06" height="13.389" transform="translate(5.669 0)" fill="#c69c31"/>
      <rect id="Rectángulo_336" data-name="Rectángulo 336" width="0.06" height="13.389" transform="translate(5.729 0)" fill="#c79e32"/>
      <rect id="Rectángulo_337" data-name="Rectángulo 337" width="0.06" height="13.389" transform="translate(5.79 0)" fill="#c79e33"/>
      <rect id="Rectángulo_338" data-name="Rectángulo 338" width="0.06" height="13.389" transform="translate(5.85 0)" fill="#c99f34"/>
      <rect id="Rectángulo_339" data-name="Rectángulo 339" width="0.06" height="13.389" transform="translate(5.91 0)" fill="#c9a034"/>
      <rect id="Rectángulo_340" data-name="Rectángulo 340" width="0.06" height="13.389" transform="translate(5.97 0)" fill="#caa134"/>
      <rect id="Rectángulo_341" data-name="Rectángulo 341" width="0.06" height="13.389" transform="translate(6.031 0)" fill="#caa235"/>
      <rect id="Rectángulo_342" data-name="Rectángulo 342" width="0.06" height="13.389" transform="translate(6.091 0)" fill="#cca337"/>
      <rect id="Rectángulo_343" data-name="Rectángulo 343" width="0.06" height="13.389" transform="translate(6.152 0)" fill="#cba438"/>
      <rect id="Rectángulo_344" data-name="Rectángulo 344" width="0.06" height="13.389" transform="translate(6.212 0)" fill="#cda63a"/>
      <rect id="Rectángulo_345" data-name="Rectángulo 345" width="0.06" height="13.389" transform="translate(6.272 0)" fill="#cea83c"/>
      <rect id="Rectángulo_346" data-name="Rectángulo 346" width="0.06" height="13.389" transform="translate(6.333 0)" fill="#d0a83d"/>
      <rect id="Rectángulo_347" data-name="Rectángulo 347" width="0.06" height="13.389" transform="translate(6.393 0)" fill="#d0aa3e"/>
      <rect id="Rectángulo_348" data-name="Rectángulo 348" width="0.06" height="13.389" transform="translate(6.453 0)" fill="#d0aa3f"/>
      <rect id="Rectángulo_349" data-name="Rectángulo 349" width="0.06" height="13.389" transform="translate(6.513 0)" fill="#d2ac41"/>
      <rect id="Rectángulo_350" data-name="Rectángulo 350" width="0.06" height="13.389" transform="translate(6.574 0)" fill="#d2ad42"/>
      <rect id="Rectángulo_351" data-name="Rectángulo 351" width="0.06" height="13.389" transform="translate(6.634 0)" fill="#d4af43"/>
      <rect id="Rectángulo_352" data-name="Rectángulo 352" width="0.06" height="13.389" transform="translate(6.694 0)" fill="#d4af43"/>
      <rect id="Rectángulo_353" data-name="Rectángulo 353" width="0.06" height="13.389" transform="translate(6.755 0)" fill="#d4b044"/>
      <rect id="Rectángulo_354" data-name="Rectángulo 354" width="0.06" height="13.389" transform="translate(6.815 0)" fill="#d6b145"/>
      <rect id="Rectángulo_355" data-name="Rectángulo 355" width="0.06" height="13.389" transform="translate(6.876 0)" fill="#d6b347"/>
      <rect id="Rectángulo_356" data-name="Rectángulo 356" width="0.06" height="13.389" transform="translate(6.936 0)" fill="#d7b448"/>
      <rect id="Rectángulo_357" data-name="Rectángulo 357" width="0.06" height="13.389" transform="translate(6.996 0)" fill="#d8b649"/>
      <rect id="Rectángulo_358" data-name="Rectángulo 358" width="0.06" height="13.389" transform="translate(7.056 0)" fill="#d9b64a"/>
      <rect id="Rectángulo_359" data-name="Rectángulo 359" width="0.06" height="13.389" transform="translate(7.117 0)" fill="#dab84c"/>
      <rect id="Rectángulo_360" data-name="Rectángulo 360" width="0.06" height="13.389" transform="translate(7.177 0)" fill="#dbb94c"/>
      <rect id="Rectángulo_361" data-name="Rectángulo 361" width="0.06" height="13.389" transform="translate(7.237 0)" fill="#daba4e"/>
      <rect id="Rectángulo_362" data-name="Rectángulo 362" width="0.06" height="13.389" transform="translate(7.297 0)" fill="#dcbb4f"/>
      <rect id="Rectángulo_363" data-name="Rectángulo 363" width="0.06" height="13.389" transform="translate(7.358 0)" fill="#ddbd51"/>
      <rect id="Rectángulo_364" data-name="Rectángulo 364" width="0.06" height="13.389" transform="translate(7.418 0)" fill="#e0bf52"/>
      <rect id="Rectángulo_365" data-name="Rectángulo 365" width="0.06" height="13.389" transform="translate(7.479 0)" fill="#e0c054"/>
      <rect id="Rectángulo_366" data-name="Rectángulo 366" width="0.06" height="13.389" transform="translate(7.539 0)" fill="#e1c156"/>
      <rect id="Rectángulo_367" data-name="Rectángulo 367" width="0.06" height="13.389" transform="translate(7.6 0)" fill="#e1c356"/>
      <rect id="Rectángulo_368" data-name="Rectángulo 368" width="0.06" height="13.389" transform="translate(7.66 0)" fill="#e3c457"/>
      <rect id="Rectángulo_369" data-name="Rectángulo 369" width="0.06" height="13.389" transform="translate(7.72 0)" fill="#e4c658"/>
      <rect id="Rectángulo_370" data-name="Rectángulo 370" width="0.06" height="13.389" transform="translate(7.78 0)" fill="#e4c659"/>
      <rect id="Rectángulo_371" data-name="Rectángulo 371" width="0.06" height="13.389" transform="translate(7.84 0)" fill="#e4c75b"/>
      <rect id="Rectángulo_372" data-name="Rectángulo 372" width="0.06" height="13.389" transform="translate(7.901 0)" fill="#e5c85c"/>
      <rect id="Rectángulo_373" data-name="Rectángulo 373" width="0.041" height="13.389" transform="translate(7.961 0)" fill="#e5c85c"/>
      <rect id="Rectángulo_374" data-name="Rectángulo 374" width="0.041" height="13.389" transform="translate(8.002 0)" fill="#e5c85c"/>
      <rect id="Rectángulo_375" data-name="Rectángulo 375" width="0.041" height="13.389" transform="translate(8.044 0)" fill="#e5c85c"/>
      <rect id="Rectángulo_376" data-name="Rectángulo 376" width="0.041" height="13.389" transform="translate(8.085 0)" fill="#e5c85c"/>
      <rect id="Rectángulo_377" data-name="Rectángulo 377" width="0.041" height="13.389" transform="translate(8.126 0)" fill="#e5c85c"/>
      <rect id="Rectángulo_378" data-name="Rectángulo 378" width="0.041" height="13.389" transform="translate(8.168 0)" fill="#e5c85c"/>
      <rect id="Rectángulo_379" data-name="Rectángulo 379" width="0.041" height="13.389" transform="translate(8.209 0)" fill="#e4c75b"/>
      <rect id="Rectángulo_380" data-name="Rectángulo 380" width="0.041" height="13.389" transform="translate(8.25 0)" fill="#e4c75b"/>
      <rect id="Rectángulo_381" data-name="Rectángulo 381" width="0.041" height="13.389" transform="translate(8.291 0)" fill="#e4c75b"/>
      <rect id="Rectángulo_382" data-name="Rectángulo 382" width="0.041" height="13.389" transform="translate(8.332 0)" fill="#e4c75a"/>
      <rect id="Rectángulo_383" data-name="Rectángulo 383" width="0.041" height="13.389" transform="translate(8.373 0)" fill="#e4c659"/>
      <rect id="Rectángulo_384" data-name="Rectángulo 384" width="0.041" height="13.389" transform="translate(8.415 0)" fill="#e4c659"/>
      <rect id="Rectángulo_385" data-name="Rectángulo 385" width="0.041" height="13.389" transform="translate(8.456 0)" fill="#e4c658"/>
      <rect id="Rectángulo_386" data-name="Rectángulo 386" width="0.041" height="13.389" transform="translate(8.497 0)" fill="#e4c458"/>
      <rect id="Rectángulo_387" data-name="Rectángulo 387" width="0.041" height="13.389" transform="translate(8.539 0)" fill="#e3c458"/>
      <rect id="Rectángulo_388" data-name="Rectángulo 388" width="0.041" height="13.389" transform="translate(8.58 0)" fill="#e3c457"/>
      <rect id="Rectángulo_389" data-name="Rectángulo 389" width="0.041" height="13.389" transform="translate(8.621 0)" fill="#e1c357"/>
      <rect id="Rectángulo_390" data-name="Rectángulo 390" width="0.041" height="13.389" transform="translate(8.662 0)" fill="#e1c356"/>
      <rect id="Rectángulo_391" data-name="Rectángulo 391" width="0.041" height="13.389" transform="translate(8.703 0)" fill="#e1c156"/>
      <rect id="Rectángulo_392" data-name="Rectángulo 392" width="0.041" height="13.389" transform="translate(8.744 0)" fill="#e1c156"/>
      <rect id="Rectángulo_393" data-name="Rectángulo 393" width="0.041" height="13.389" transform="translate(8.786 0)" fill="#e0c055"/>
      <rect id="Rectángulo_394" data-name="Rectángulo 394" width="0.041" height="13.389" transform="translate(8.827 0)" fill="#e0be53"/>
      <rect id="Rectángulo_395" data-name="Rectángulo 395" width="0.041" height="13.389" transform="translate(8.869 0)" fill="#e0bf52"/>
      <rect id="Rectángulo_396" data-name="Rectángulo 396" width="0.041" height="13.389" transform="translate(8.91 0)" fill="#e0bf52"/>
      <rect id="Rectángulo_397" data-name="Rectángulo 397" width="0.041" height="13.389" transform="translate(8.951 0)" fill="#ddbc51"/>
      <rect id="Rectángulo_398" data-name="Rectángulo 398" width="0.041" height="13.389" transform="translate(8.992 0)" fill="#ddbb50"/>
      <rect id="Rectángulo_399" data-name="Rectángulo 399" width="0.041" height="13.389" transform="translate(9.033 0)" fill="#ddbb50"/>
      <rect id="Rectángulo_400" data-name="Rectángulo 400" width="0.041" height="13.389" transform="translate(9.074 0)" fill="#dbb94e"/>
      <rect id="Rectángulo_401" data-name="Rectángulo 401" width="0.041" height="13.389" transform="translate(9.116 0)" fill="#dbb94e"/>
      <rect id="Rectángulo_402" data-name="Rectángulo 402" width="0.041" height="13.389" transform="translate(9.157 0)" fill="#dbb84d"/>
      <rect id="Rectángulo_403" data-name="Rectángulo 403" width="0.041" height="13.389" transform="translate(9.198 0)" fill="#dab74c"/>
      <rect id="Rectángulo_404" data-name="Rectángulo 404" width="0.041" height="13.389" transform="translate(9.24 0)" fill="#dab64b"/>
      <rect id="Rectángulo_405" data-name="Rectángulo 405" width="0.041" height="13.389" transform="translate(9.281 0)" fill="#d9b54a"/>
      <rect id="Rectángulo_406" data-name="Rectángulo 406" width="0.041" height="13.389" transform="translate(9.322 0)" fill="#d8b449"/>
      <rect id="Rectángulo_407" data-name="Rectángulo 407" width="0.041" height="13.389" transform="translate(9.363 0)" fill="#d7b349"/>
      <rect id="Rectángulo_408" data-name="Rectángulo 408" width="0.041" height="13.389" transform="translate(9.404 0)" fill="#d7b248"/>
      <rect id="Rectángulo_409" data-name="Rectángulo 409" width="0.041" height="13.389" transform="translate(9.445 0)" fill="#d6b147"/>
      <rect id="Rectángulo_410" data-name="Rectángulo 410" width="0.041" height="13.389" transform="translate(9.487 0)" fill="#d6b146"/>
      <rect id="Rectángulo_411" data-name="Rectángulo 411" width="0.041" height="13.389" transform="translate(9.528 0)" fill="#d6b045"/>
      <rect id="Rectángulo_412" data-name="Rectángulo 412" width="0.041" height="13.389" transform="translate(9.569 0)" fill="#d4ae43"/>
      <rect id="Rectángulo_413" data-name="Rectángulo 413" width="0.041" height="13.389" transform="translate(9.611 0)" fill="#d4ae43"/>
      <rect id="Rectángulo_414" data-name="Rectángulo 414" width="0.041" height="13.389" transform="translate(9.652 0)" fill="#d2ad42"/>
      <rect id="Rectángulo_415" data-name="Rectángulo 415" width="0.041" height="13.389" transform="translate(9.693 0)" fill="#d2ab41"/>
      <rect id="Rectángulo_416" data-name="Rectángulo 416" width="0.041" height="13.389" transform="translate(9.734 0)" fill="#d1aa40"/>
      <rect id="Rectángulo_417" data-name="Rectángulo 417" width="0.041" height="13.389" transform="translate(9.775 0)" fill="#d2a93f"/>
      <rect id="Rectángulo_418" data-name="Rectángulo 418" width="0.041" height="13.389" transform="translate(9.816 0)" fill="#d1a83d"/>
      <rect id="Rectángulo_419" data-name="Rectángulo 419" width="0.041" height="13.389" transform="translate(9.858 0)" fill="#cfa73d"/>
      <rect id="Rectángulo_420" data-name="Rectángulo 420" width="0.041" height="13.389" transform="translate(9.899 0)" fill="#cea53b"/>
      <rect id="Rectángulo_421" data-name="Rectángulo 421" width="0.041" height="13.389" transform="translate(9.94 0)" fill="#cea53a"/>
      <rect id="Rectángulo_422" data-name="Rectángulo 422" width="0.041" height="13.389" transform="translate(9.982 0)" fill="#cda238"/>
      <rect id="Rectángulo_423" data-name="Rectángulo 423" width="0.041" height="13.389" transform="translate(10.023 0)" fill="#cca138"/>
      <rect id="Rectángulo_424" data-name="Rectángulo 424" width="0.041" height="13.389" transform="translate(10.064 0)" fill="#cba137"/>
      <rect id="Rectángulo_425" data-name="Rectángulo 425" width="0.041" height="13.389" transform="translate(10.105 0)" fill="#ca9f35"/>
      <rect id="Rectángulo_426" data-name="Rectángulo 426" width="0.041" height="13.389" transform="translate(10.146 0)" fill="#ca9e35"/>
      <rect id="Rectángulo_427" data-name="Rectángulo 427" width="0.041" height="13.389" transform="translate(10.188 0)" fill="#c99c34"/>
      <rect id="Rectángulo_428" data-name="Rectángulo 428" width="0.041" height="13.389" transform="translate(10.229 0)" fill="#c89c33"/>
      <rect id="Rectángulo_429" data-name="Rectángulo 429" width="0.041" height="13.389" transform="translate(10.27 0)" fill="#c79a32"/>
      <rect id="Rectángulo_430" data-name="Rectángulo 430" width="0.041" height="13.389" transform="translate(10.312 0)" fill="#c6992f"/>
      <rect id="Rectángulo_431" data-name="Rectángulo 431" width="0.041" height="13.389" transform="translate(10.353 0)" fill="#c6992f"/>
      <rect id="Rectángulo_432" data-name="Rectángulo 432" width="0.041" height="13.389" transform="translate(10.394 0)" fill="#c4972d"/>
      <rect id="Rectángulo_433" data-name="Rectángulo 433" width="0.041" height="13.389" transform="translate(10.435 0)" fill="#c4952c"/>
      <rect id="Rectángulo_434" data-name="Rectángulo 434" width="0.041" height="13.389" transform="translate(10.476 0)" fill="#c3952b"/>
      <rect id="Rectángulo_435" data-name="Rectángulo 435" width="0.041" height="13.389" transform="translate(10.517 0)" fill="#c2932a"/>
      <rect id="Rectángulo_436" data-name="Rectángulo 436" width="0.041" height="13.389" transform="translate(10.559 0)" fill="#c19129"/>
      <rect id="Rectángulo_437" data-name="Rectángulo 437" width="0.041" height="13.389" transform="translate(10.6 0)" fill="#c09027"/>
      <rect id="Rectángulo_438" data-name="Rectángulo 438" width="0.041" height="13.389" transform="translate(10.641 0)" fill="#bf8e26"/>
      <rect id="Rectángulo_439" data-name="Rectángulo 439" width="0.041" height="13.389" transform="translate(10.683 0)" fill="#be8d26"/>
      <rect id="Rectángulo_440" data-name="Rectángulo 440" width="0.041" height="13.389" transform="translate(10.724 0)" fill="#be8b25"/>
      <rect id="Rectángulo_441" data-name="Rectángulo 441" width="0.041" height="13.389" transform="translate(10.765 0)" fill="#bb8923"/>
      <rect id="Rectángulo_442" data-name="Rectángulo 442" width="0.041" height="13.389" transform="translate(10.806 0)" fill="#bb8922"/>
      <rect id="Rectángulo_443" data-name="Rectángulo 443" width="0.041" height="13.389" transform="translate(10.847 0)" fill="#bb8721"/>
      <rect id="Rectángulo_444" data-name="Rectángulo 444" width="0.041" height="13.389" transform="translate(10.888 0)" fill="#b9861f"/>
      <rect id="Rectángulo_445" data-name="Rectángulo 445" width="0.041" height="13.389" transform="translate(10.93 0)" fill="#b9841f"/>
      <rect id="Rectángulo_446" data-name="Rectángulo 446" width="0.041" height="13.389" transform="translate(10.971 0)" fill="#b7831e"/>
      <rect id="Rectángulo_447" data-name="Rectángulo 447" width="0.041" height="13.389" transform="translate(11.012 0)" fill="#b6811d"/>
      <rect id="Rectángulo_448" data-name="Rectángulo 448" width="0.041" height="13.389" transform="translate(11.054 0)" fill="#b6801c"/>
      <rect id="Rectángulo_449" data-name="Rectángulo 449" width="0.041" height="13.389" transform="translate(11.095 0)" fill="#b6801a"/>
      <rect id="Rectángulo_450" data-name="Rectángulo 450" width="0.041" height="13.389" transform="translate(11.136 0)" fill="#b47f19"/>
      <rect id="Rectángulo_451" data-name="Rectángulo 451" width="0.041" height="13.389" transform="translate(11.177 0)" fill="#b47d18"/>
    </g>
  </g>
</svg>
