<svg xmlns="http://www.w3.org/2000/svg" width="44" height="43" viewBox="0 0 44 43">
  <g id="Grupo_16208" data-name="Grupo 16208" transform="translate(0.19 -0.362)">
    <g id="Elipse_25" data-name="Elipse 25" transform="translate(-0.19 0.362)" fill="rgba(243,243,243,0.32)" stroke="#e8e8e8" stroke-width="2">
      <ellipse cx="22" cy="21.5" rx="22" ry="21.5" stroke="none"/>
      <ellipse cx="22" cy="21.5" rx="21" ry="20.5" fill="none"/>
    </g>
    <path id="twitter" d="M18.98,49.826a8.112,8.112,0,0,1-2.242.614,3.869,3.869,0,0,0,1.712-2.151,7.776,7.776,0,0,1-2.467.942,3.891,3.891,0,0,0-6.731,2.661,4.007,4.007,0,0,0,.09.887,11.014,11.014,0,0,1-8.02-4.07,3.892,3.892,0,0,0,1.2,5.2,3.843,3.843,0,0,1-1.758-.479v.043A3.909,3.909,0,0,0,3.877,57.3a3.884,3.884,0,0,1-1.02.128,3.441,3.441,0,0,1-.737-.066,3.928,3.928,0,0,0,3.636,2.711,7.819,7.819,0,0,1-4.825,1.66A7.29,7.29,0,0,1,0,61.675a10.955,10.955,0,0,0,5.969,1.746A11,11,0,0,0,17.044,52.349c0-.172-.006-.338-.014-.5A7.762,7.762,0,0,0,18.98,49.826Z" transform="translate(12.35 -33.693)" fill="#fff"/>
  </g>
</svg>
