<svg xmlns="http://www.w3.org/2000/svg" width="24.543" height="19.934" viewBox="0 0 24.543 19.934">
  <path id="Icon_awesome-twitter" data-name="Icon awesome-twitter" d="M22.021,8.349c.016.218.016.436.016.654A14.214,14.214,0,0,1,7.724,23.315,14.215,14.215,0,0,1,0,21.056a10.406,10.406,0,0,0,1.215.062A10.074,10.074,0,0,0,7.46,18.97a5.039,5.039,0,0,1-4.7-3.488,6.343,6.343,0,0,0,.95.078,5.32,5.32,0,0,0,1.324-.171A5.031,5.031,0,0,1,1,10.451v-.062a5.066,5.066,0,0,0,2.274.638A5.038,5.038,0,0,1,1.713,4.3,14.3,14.3,0,0,0,12.085,9.563a5.678,5.678,0,0,1-.125-1.152,5.035,5.035,0,0,1,8.705-3.442,9.9,9.9,0,0,0,3.193-1.215,5.017,5.017,0,0,1-2.211,2.772,10.084,10.084,0,0,0,2.9-.779,10.813,10.813,0,0,1-2.523,2.6Z" transform="translate(0 -3.381)" fill="#d5af43"/>
</svg>
