<svg xmlns="http://www.w3.org/2000/svg" width="22" height="20" viewBox="0 0 22 20">
  <g id="Grupo_16068" data-name="Grupo 16068" transform="translate(-1116.054 -6976)">
    <path id="chevron-right-Filled_1_" d="M940.707,2637.707l-9,9a1,1,0,0,1-1.414-1.414l8.293-8.293-8.293-8.293a1,1,0,0,1,1.414-1.414l9,9A1,1,0,0,1,940.707,2637.707Z" transform="translate(186.054 4349)" fill="#fff"/>
    <path id="chevron-right-Filled_1_2" data-name="chevron-right-Filled_1_" d="M940.707,2637.707l-9,9a1,1,0,0,1-1.414-1.414l8.293-8.293-8.293-8.293a1,1,0,0,1,1.414-1.414l9,9A1,1,0,0,1,940.707,2637.707Z" transform="translate(197.054 4349)" fill="#fff"/>
  </g>
</svg>
