<svg id="Componente_73_2" data-name="Componente 73 – 2" xmlns="http://www.w3.org/2000/svg" width="40" height="40" viewBox="0 0 40 40">
  <rect id="Path" width="40" height="40" fill="rgba(255,255,255,0)"/>
  <path id="menu-Bold_1_" d="M205,1823.667a1.666,1.666,0,0,1,1.667-1.667h21.667a1.667,1.667,0,0,1,0,3.333H206.667A1.666,1.666,0,0,1,205,1823.667Zm31.667,10h-30a1.667,1.667,0,1,0,0,3.333h30a1.667,1.667,0,1,0,0-3.333Zm-15,11.667h-15a1.667,1.667,0,1,0,0,3.333h15a1.667,1.667,0,1,0,0-3.333Z" transform="translate(-201.667 -1815.333)" fill="#d4ae4d"/>
</svg>
