<svg xmlns="http://www.w3.org/2000/svg" xmlns:xlink="http://www.w3.org/1999/xlink" width="59" height="59" viewBox="0 0 59 59">
  <defs>
    <linearGradient id="linear-gradient" x1="1" y1="0.455" x2="0" y2="0.452" gradientUnits="objectBoundingBox">
      <stop offset="0" stop-color="#d5af43"/>
      <stop offset="0.134" stop-color="#d5af43"/>
      <stop offset="0.308" stop-color="#b48217"/>
      <stop offset="0.659" stop-color="#d5af43"/>
      <stop offset="0.872" stop-color="#b48217"/>
      <stop offset="1" stop-color="#d5af43"/>
    </linearGradient>
    <filter id="Elipse_26" x="0" y="0" width="59" height="59" filterUnits="userSpaceOnUse">
      <feOffset dy="3" input="SourceAlpha"/>
      <feGaussianBlur stdDeviation="3" result="blur"/>
      <feFlood flood-opacity="0.161"/>
      <feComposite operator="in" in2="blur"/>
      <feComposite in="SourceGraphic"/>
    </filter>
  </defs>
  <g id="Componente_73_10" data-name="Componente 73 – 10" transform="translate(9 6)">
    <g transform="matrix(1, 0, 0, 1, -9, -6)" filter="url(#Elipse_26)">
      <circle id="Elipse_26-2" data-name="Elipse 26" cx="20.5" cy="20.5" r="20.5" transform="translate(9 6)" fill="url(#linear-gradient)"/>
    </g>
    <g id="noun-tiktok-3861486" transform="translate(-154.453 -36.255)">
      <path id="Trazado_11733" data-name="Trazado 11733" d="M182.645,49.382a.345.345,0,0,0-.32-.036,1.943,1.943,0,0,1-2.736-1.741.364.364,0,0,0-.355-.355h-3.624a.336.336,0,0,0-.355.355V60.291a1.2,1.2,0,0,1-1.208,1.1,1.259,1.259,0,0,1-1.244-1.244,1.2,1.2,0,0,1,1.1-1.208.378.378,0,0,0,.32-.355V54.463a.336.336,0,0,0-.355-.355H173.8a6.043,6.043,0,1,0,6.254,6.574.214.214,0,0,0,.036-.142V53.681a6.282,6.282,0,0,0,2.452.107.346.346,0,0,0,.284-.355V49.666a.362.362,0,0,0-.178-.284Zm-.533,3.767a5.586,5.586,0,0,1-2.31-.249.5.5,0,0,0-.32.036.323.323,0,0,0-.142.284V60.4a.13.13,0,0,1-.036.107,5.318,5.318,0,0,1-10.625-.355,5.27,5.27,0,0,1,4.8-5.295V58.3a1.936,1.936,0,0,0,.533,3.8,1.948,1.948,0,0,0,1.919-1.635.214.214,0,0,0,.036-.142V47.96h2.949a2.815,2.815,0,0,0,.5,1.208,2.621,2.621,0,0,0,2.7.995Z" transform="translate(0 0)" fill="#fff" stroke="#fff" stroke-width="0.5"/>
    </g>
  </g>
</svg>
