<svg xmlns="http://www.w3.org/2000/svg" width="22.75" height="24.187" viewBox="0 0 22.75 24.187">
  <g id="User" transform="translate(-0.25 -0.75)">
    <path id="Path" d="M5.5,0a5.5,5.5,0,1,0,5.5,5.5A5.5,5.5,0,0,0,5.5,0Z" transform="translate(6.121 0.75)" fill="#fff"/>
    <path id="Path-2" data-name="Path" d="M5.5,0A5.5,5.5,0,0,0,0,5.5V7.248A2.256,2.256,0,0,0,1.892,9.474a58.848,58.848,0,0,0,18.965,0A2.256,2.256,0,0,0,22.75,7.248V5.5a5.5,5.5,0,0,0-5.5-5.5h-.5a2.571,2.571,0,0,0-.8.127l-1.27.415a10.643,10.643,0,0,1-6.606,0L6.8.127A2.571,2.571,0,0,0,6,0Z" transform="translate(0.25 14.693)" fill="#fff"/>
  </g>
</svg>
