<svg xmlns="http://www.w3.org/2000/svg" xmlns:xlink="http://www.w3.org/1999/xlink" width="59" height="58" viewBox="0 0 59 58">
  <defs>
    <linearGradient id="linear-gradient" x1="1" y1="0.5" x2="0" y2="0.5" gradientUnits="objectBoundingBox">
      <stop offset="0" stop-color="#d5af43"/>
      <stop offset="0.134" stop-color="#d5af43"/>
      <stop offset="0.308" stop-color="#b48217"/>
      <stop offset="0.659" stop-color="#d5af43"/>
      <stop offset="0.872" stop-color="#b48217"/>
      <stop offset="1" stop-color="#d5af43"/>
    </linearGradient>
    <filter id="Elipse_25" x="0" y="0" width="59" height="58" filterUnits="userSpaceOnUse">
      <feOffset dy="3" input="SourceAlpha"/>
      <feGaussianBlur stdDeviation="3" result="blur"/>
      <feFlood flood-opacity="0.161"/>
      <feComposite operator="in" in2="blur"/>
      <feComposite in="SourceGraphic"/>
    </filter>
  </defs>
  <g id="Componente_74_1" data-name="Componente 74 – 1" transform="translate(9 6)">
    <g transform="matrix(1, 0, 0, 1, -9, -6)" filter="url(#Elipse_25)">
      <ellipse id="Elipse_25-2" data-name="Elipse 25" cx="20.5" cy="20" rx="20.5" ry="20" transform="translate(9 6)" fill="url(#linear-gradient)"/>
    </g>
    <path id="twitter" d="M18.026,49.734a7.7,7.7,0,0,1-2.129.584,3.675,3.675,0,0,0,1.626-2.043,7.385,7.385,0,0,1-2.343.895A3.7,3.7,0,0,0,8.787,51.7a3.805,3.805,0,0,0,.086.843,10.46,10.46,0,0,1-7.617-3.865,3.7,3.7,0,0,0,1.136,4.939,3.649,3.649,0,0,1-1.67-.455V53.2a3.713,3.713,0,0,0,2.961,3.631,3.688,3.688,0,0,1-.969.122,3.268,3.268,0,0,1-.7-.063,3.731,3.731,0,0,0,3.453,2.574A7.426,7.426,0,0,1,.884,61.039,6.923,6.923,0,0,1,0,60.988a10.4,10.4,0,0,0,5.669,1.658A10.446,10.446,0,0,0,16.187,52.13c0-.163-.006-.321-.014-.478A7.372,7.372,0,0,0,18.026,49.734Z" transform="translate(13.269 -34.594)" fill="#fff"/>
  </g>
</svg>
