<svg xmlns="http://www.w3.org/2000/svg" width="21.488" height="21.482" viewBox="0 0 21.488 21.482">
  <path id="Icon_awesome-instagram" data-name="Icon awesome-instagram" d="M10.741,7.471a5.508,5.508,0,1,0,5.508,5.508A5.5,5.5,0,0,0,10.741,7.471Zm0,9.089a3.581,3.581,0,1,1,3.581-3.581A3.587,3.587,0,0,1,10.741,16.56Zm7.018-9.314a1.285,1.285,0,1,1-1.285-1.285A1.282,1.282,0,0,1,17.759,7.246Zm3.648,1.3a6.358,6.358,0,0,0-1.735-4.5,6.4,6.4,0,0,0-4.5-1.735c-1.774-.1-7.09-.1-8.863,0a6.39,6.39,0,0,0-4.5,1.731A6.378,6.378,0,0,0,.07,8.545c-.1,1.774-.1,7.09,0,8.863a6.358,6.358,0,0,0,1.735,4.5,6.408,6.408,0,0,0,4.5,1.735c1.774.1,7.09.1,8.863,0a6.358,6.358,0,0,0,4.5-1.735,6.4,6.4,0,0,0,1.735-4.5c.1-1.774.1-7.085,0-8.859ZM19.115,19.311a3.625,3.625,0,0,1-2.042,2.042c-1.414.561-4.77.431-6.332.431s-4.923.125-6.332-.431a3.625,3.625,0,0,1-2.042-2.042c-.561-1.414-.431-4.77-.431-6.332s-.125-4.923.431-6.332A3.625,3.625,0,0,1,4.408,4.6c1.414-.561,4.77-.431,6.332-.431s4.923-.125,6.332.431a3.625,3.625,0,0,1,2.042,2.042c.561,1.414.431,4.77.431,6.332S19.676,17.9,19.115,19.311Z" transform="translate(0.005 -2.238)" fill="#d5af43"/>
</svg>
