<svg xmlns="http://www.w3.org/2000/svg" width="15.999" height="20.001" viewBox="0 0 15.999 20.001">
  <path id="map-marker-Bold_1_" d="M215,2040a4,4,0,1,0,4,4A4,4,0,0,0,215,2040Zm0,6a2,2,0,1,1,2-2A2,2,0,0,1,215,2046Zm0-10a7.822,7.822,0,0,0-8,8c0,6.326,4.812,10.26,6.881,11.657a1.979,1.979,0,0,0,2.227,0c2.072-1.4,6.891-5.335,6.891-11.659A7.825,7.825,0,0,0,215,2036Zm.005,18c-1.8-1.219-6-4.633-6-10a5.8,5.8,0,0,1,6-6,5.87,5.87,0,0,1,6,6C221,2049.364,216.8,2052.781,215,2054Z" transform="translate(-207 -2036)" fill="#fff"/>
</svg>
