<svg id="Componente_74_2" data-name="Componente 74 – 2" xmlns="http://www.w3.org/2000/svg" width="30.87" height="35.379" viewBox="0 0 30.87 35.379">
  <g id="noun-phone-2178380">
    <path id="Trazado_1" data-name="Trazado 1" d="M190.146,0h12.772a3.947,3.947,0,0,1,3.964,3.964V31.415a3.947,3.947,0,0,1-3.964,3.964H190.146a3.947,3.947,0,0,1-3.964-3.964V3.964A3.947,3.947,0,0,1,190.146,0ZM196.6,30.535a1.922,1.922,0,0,1,1.762,1.908A1.785,1.785,0,0,1,196.6,34.2a1.82,1.82,0,0,1-1.908-1.762A1.943,1.943,0,0,1,196.6,30.535ZM193.816,2.2h5.432a.469.469,0,0,1,.441.441.389.389,0,0,1-.441.441h-5.432a.389.389,0,0,1-.44-.441A.469.469,0,0,1,193.816,2.2ZM187.8,5.579h17.47V29.507H187.8Z" transform="translate(-186.182 0)" fill="#d5af43" fill-rule="evenodd"/>
  </g>
  <g id="comment-dots-Bold" transform="translate(9.971 9.256)">
    <rect id="Path" width="20.899" height="15.674" fill="#f3f3f3"/>
    <path id="comment-dots-Bold_1_" d="M457.862,2037h-8.575a4.292,4.292,0,0,0-4.288,4.287v11.148a.858.858,0,0,0,.529.792.845.845,0,0,0,.328.065.858.858,0,0,0,.606-.251l2.07-2.07a.856.856,0,0,1,.607-.251h8.722a4.292,4.292,0,0,0,4.287-4.287v-5.145A4.292,4.292,0,0,0,457.862,2037Zm2.572,9.433a2.576,2.576,0,0,1-2.572,2.572h-8.722a2.557,2.557,0,0,0-1.82.754l-.606.606v-9.077a2.576,2.576,0,0,1,2.573-2.572h8.575a2.575,2.575,0,0,1,2.572,2.572Zm-9.218-2.573a1.072,1.072,0,1,1-1.072-1.072A1.072,1.072,0,0,1,451.217,2043.86Zm3.43,0a1.072,1.072,0,1,1-1.072-1.072A1.072,1.072,0,0,1,454.647,2043.86Zm3.43,0a1.072,1.072,0,1,1-1.072-1.072A1.072,1.072,0,0,1,458.077,2043.86Z" transform="translate(-443.285 -2036.142)" fill="#d5af43"/>
  </g>
</svg>
