<svg xmlns="http://www.w3.org/2000/svg" xmlns:xlink="http://www.w3.org/1999/xlink" width="155.332" height="155.332" viewBox="0 0 155.332 155.332">
  <defs>
    <linearGradient id="linear-gradient" x1="3.229" y1="0.413" x2="0" y2="0.5" gradientUnits="objectBoundingBox">
      <stop offset="0" stop-color="#d5af43"/>
      <stop offset="0.134" stop-color="#d5af43"/>
      <stop offset="0.308" stop-color="#b48217"/>
      <stop offset="0.659" stop-color="#d5af43"/>
      <stop offset="0.872" stop-color="#b48217"/>
      <stop offset="1" stop-color="#d5af43"/>
    </linearGradient>
    <filter id="border" x="0" y="0" width="155.332" height="155.332" filterUnits="userSpaceOnUse">
      <feOffset dy="10" input="SourceAlpha"/>
      <feGaussianBlur stdDeviation="15" result="blur"/>
      <feFlood flood-color="#d5af43" flood-opacity="0.345"/>
      <feComposite operator="in" in2="blur"/>
      <feComposite in="SourceGraphic"/>
    </filter>
  </defs>
  <g id="Grupo_16241" data-name="Grupo 16241" transform="translate(45 35)">
    <g transform="matrix(1, 0, 0, 1, -45, -35)" filter="url(#border)">
      <rect id="border-2" data-name="border" width="65.332" height="65.332" rx="7" transform="translate(45 35)" fill="url(#linear-gradient)"/>
    </g>
    <path id="Trazado_12297" data-name="Trazado 12297" d="M27.163,24.246l-6.426-6.426a9.632,9.632,0,1,0-2.917,2.917l6.426,6.426a2.063,2.063,0,1,0,2.917-2.917ZM5.754,12.633a6.88,6.88,0,1,1,6.88,6.88,6.88,6.88,0,0,1-6.88-6.88Z" transform="translate(17.496 18.21)" fill="#f3f3f3"/>
  </g>
</svg>
