<svg xmlns="http://www.w3.org/2000/svg" xmlns:xlink="http://www.w3.org/1999/xlink" width="59" height="59" viewBox="0 0 59 59">
  <defs>
    <linearGradient id="linear-gradient" x1="1" y1="0.455" x2="0" y2="0.452" gradientUnits="objectBoundingBox">
      <stop offset="0" stop-color="#d5af43"/>
      <stop offset="0.134" stop-color="#d5af43"/>
      <stop offset="0.308" stop-color="#b48217"/>
      <stop offset="0.659" stop-color="#d5af43"/>
      <stop offset="0.872" stop-color="#b48217"/>
      <stop offset="1" stop-color="#d5af43"/>
    </linearGradient>
    <filter id="Elipse_26" x="0" y="0" width="59" height="59" filterUnits="userSpaceOnUse">
      <feOffset dy="3" input="SourceAlpha"/>
      <feGaussianBlur stdDeviation="3" result="blur"/>
      <feFlood flood-opacity="0.161"/>
      <feComposite operator="in" in2="blur"/>
      <feComposite in="SourceGraphic"/>
    </filter>
  </defs>
  <g id="Componente_73_1" data-name="Componente 73 – 1" transform="translate(9 6)">
    <g transform="matrix(1, 0, 0, 1, -9, -6)" filter="url(#Elipse_26)">
      <circle id="Elipse_26-2" data-name="Elipse 26" cx="20.5" cy="20.5" r="20.5" transform="translate(9 6)" fill="url(#linear-gradient)"/>
    </g>
    <g id="Grupo_2250" data-name="Grupo 2250" transform="translate(16.613 13.679)">
      <path id="Elipse_232" data-name="Elipse 232" d="M4.241,1.06A3.181,3.181,0,1,0,7.422,4.241,3.184,3.184,0,0,0,4.241,1.06m0-1.06A4.241,4.241,0,1,1,0,4.241,4.241,4.241,0,0,1,4.241,0Z" transform="translate(0 2.934)" fill="#fff"/>
      <circle id="Elipse_233" data-name="Elipse 233" cx="1" cy="1" r="1" transform="translate(7.387 0.322)" fill="#fff"/>
    </g>
    <path id="Rectángulo_1099" data-name="Rectángulo 1099" d="M4.948,1.414A3.538,3.538,0,0,0,1.414,4.948v9.189A3.538,3.538,0,0,0,4.948,17.67h9.189a3.538,3.538,0,0,0,3.534-3.534V4.948a3.538,3.538,0,0,0-3.534-3.534H4.948M4.948,0h9.189a4.948,4.948,0,0,1,4.948,4.948v9.189a4.948,4.948,0,0,1-4.948,4.948H4.948A4.948,4.948,0,0,1,0,14.136V4.948A4.948,4.948,0,0,1,4.948,0Z" transform="translate(10.958 10.958)" fill="#fff"/>
  </g>
</svg>
