<svg xmlns="http://www.w3.org/2000/svg" width="35.1" height="35.1" viewBox="0 0 35.1 35.1">
  <g id="Grupo_2253" data-name="Grupo 2253" transform="translate(-3780 -25)">
    <g id="Elipse_234" data-name="Elipse 234" transform="translate(3797.55 25) rotate(45)" fill="rgba(212,174,77,0.21)" stroke="rgba(180,130,28,0.49)" stroke-width="1">
      <circle cx="12.41" cy="12.41" r="12.41" stroke="none"/>
      <circle cx="12.41" cy="12.41" r="11.91" fill="none"/>
    </g>
    <g id="Grupo_2251" data-name="Grupo 2251" transform="translate(3797.147 34.084) rotate(45)">
      <path id="Línea_95" data-name="Línea 95" d="M0,13.4a2,2,0,0,1-2-2V0A2,2,0,0,1,0-2,2,2,0,0,1,2,0V11.4A2,2,0,0,1,0,13.4Z" transform="translate(6.094 0)" fill="#d5af43"/>
      <path id="Línea_96" data-name="Línea 96" d="M11.992,2H0A2,2,0,0,1-2,0,2,2,0,0,1,0-2H11.992a2,2,0,0,1,2,2A2,2,0,0,1,11.992,2Z" transform="translate(0 5.701)" fill="#d5af43"/>
    </g>
  </g>
</svg>
