<svg xmlns="http://www.w3.org/2000/svg" width="155.5" height="121.434" viewBox="0 0 155.5 121.434">
  <g id="Grupo_16115" data-name="Grupo 16115" transform="translate(-9908.684 -2203.389)">
    <g id="noun-books-362287" transform="translate(9806.623 2125.275)" opacity="0.233">
      <path id="Trazado_11627" data-name="Trazado 11627" d="M246.265,258.911l-5.306,2.739-14.576,22.255L207.9,278.739l-6.8,3.5-12.145-8.8L174.1,269.271l-.473.439-.4.487-.347.531-.29.574-.212.593-.154.617-.073.622v.637l.073.637.14.608.212.6.29.559.332.531.41.5.458.439.5.381.545.319,51.267,16.071Zm-79.632-6.395.2.776.261.738.332.714.4.68.458.637.516.593L201.1,278.831l30.642-15.525v0l23.938-12.13,1.881.758v1.153l-8.33,4.3-21.878,39.584-52.7-16.8-.656-.352-.608-.39-.564-.458-.531-.5-.458-.564-.424-.6-.347-.637-.29-.666-.232-.685-.149-.709-.078-.729-.015-.729.044-.724.139-.713.2-.7.256-.68.324-.651.4-.608.453-.574.5-.531.549-.482,3.6-2.894-8.407-6.106-.593-.609-.536-.666-.468-.713-.429-.738-.347-.776-.29-.8-.212-.82-.169-.849-.078-.843-.015-.849.063-.849.12-.849.193-.8,1.177.285-.169.771-.107.791-.029.786.044.786Z" transform="translate(0 -97.419)" fill="#d5af43"/>
      <path id="Trazado_11628" data-name="Trazado 11628" d="M269.823,188.541v2.18l-18.41,7.91-8.04,12-13.288-2.846-17.21,7.389-28.231-17.132-1.78-.376-.7-.763-.637-.8,1.335-.424,59,11.349,19.611-27.1h1.49v1.467l-2.464,3.651Z" transform="translate(-12.264 -45.983)" fill="#d5af43"/>
      <path id="Trazado_11629" data-name="Trazado 11629" d="M169.294,148.39l-.444.651-.382.68-.318.728-.241.743-1.177-.285,0-.019.261-.815.333-.791.4-.758.453-.709.52-.684-.4-1L168,145.1l-.232-1.042-.15-1.061-.062-1.076V140.86l.091-1.076.169-1.061.241-1.046.324-1.013.391-1,40.472-16.9,44.131,3.275v1.577l-21.13,23.253L170.369,137l-.319.97-.256.983-.183,1-.106,1.013-.034,1.013.034,1.018.12,1.013.183,1,.241.984.319.969.4.936.458.912.515.878-1.335.424-.579-.849Z" transform="translate(-1.137 0)" fill="#d5af43"/>
    </g>
    <g id="noun-graduate-2360564" transform="translate(9676.309 1993.424)">
      <path id="Trazado_11730" data-name="Trazado 11730" d="M366.6,235.231l-64.9-25.049a3.247,3.247,0,0,0-2.336,0l-64.9,25.049a3.245,3.245,0,0,0,0,6.068l27.387,10.545v22.2h0a3.248,3.248,0,0,0,1.039,2.4,55.906,55.906,0,0,0,75.281,0,3.248,3.248,0,0,0,1.039-2.4v-22.2l9.735-3.732v13.4l0,0a8.534,8.534,0,0,0-1.589,14.991l-4.024,6.944a3.241,3.241,0,1,0,5.613,3.243l3.246-5.484,3.246,5.484a3.241,3.241,0,0,0,5.613-3.243l-4.153-6.944a8.534,8.534,0,0,0-1.526-14.959v-15.9l11.226-4.316v0a3.245,3.245,0,0,0,0-6.068Zm-33.876,37.38a49.415,49.415,0,0,1-64.376,0V254.343l31.02,12.005v0a3.62,3.62,0,0,0,2.336,0l31.02-12.005Zm19.47-1.168a2.124,2.124,0,1,0-.066,0Zm-51.657-11.616-55.877-21.577,55.877-21.545,55.877,21.545Z" transform="translate(0)" fill="#d5af43"/>
    </g>
  </g>
</svg>
