<svg xmlns="http://www.w3.org/2000/svg" width="22.645" height="18" viewBox="0 0 22.645 18">
  <path id="envelope-Regular_1_" d="M558.379,1302.25H546.766a5.523,5.523,0,0,0-5.516,5.516v6.968a5.523,5.523,0,0,0,5.516,5.516h11.613a5.523,5.523,0,0,0,5.516-5.516v-6.968A5.523,5.523,0,0,0,558.379,1302.25Zm-11.613,1.742h11.613a3.779,3.779,0,0,1,3.487,2.338l-7.2,4.8a3.768,3.768,0,0,1-4.186,0l-7.2-4.8A3.775,3.775,0,0,1,546.766,1303.992Zm11.613,14.516H546.766a3.779,3.779,0,0,1-3.774-3.774v-6.5l6.521,4.348a5.5,5.5,0,0,0,6.12,0l6.521-4.348v6.5A3.779,3.779,0,0,1,558.379,1318.508Z" transform="translate(-541.25 -1302.25)" fill="#fff"/>
</svg>
