<svg xmlns="http://www.w3.org/2000/svg" width="19.998" height="19.999" viewBox="0 0 19.998 19.999">
  <path id="phone-Bold_1_" d="M752.933,2122.558a3.812,3.812,0,0,0-.086-.381,1.976,1.976,0,0,0-1.585-1.392l-4.331-.721a2.014,2.014,0,0,0-1.905.729c-.058.073-.114.149-.226.273a9.088,9.088,0,0,1-4.831-4.92c.1-.069.2-.143.3-.22a2.013,2.013,0,0,0,.721-1.877l-.671-4.255a1.985,1.985,0,0,0-1.336-1.588,3.918,3.918,0,0,0-.542-.137,4.54,4.54,0,0,0-3.764,1.043,4.778,4.778,0,0,0-1.67,3.768A15.542,15.542,0,0,0,748.119,2128h.13a4.77,4.77,0,0,0,3.618-1.661A4.569,4.569,0,0,0,752.933,2122.558Zm-2.579,2.472a2.77,2.77,0,0,1-2.182.969A13.543,13.543,0,0,1,735,2112.827a2.789,2.789,0,0,1,.975-2.2,2.528,2.528,0,0,1,1.657-.632,2.6,2.6,0,0,1,.447.04,1.722,1.722,0,0,1,.259.067l.666,4.269c-.05.04-.1.078-.158.116a2.027,2.027,0,0,0-.75,2.5,11.352,11.352,0,0,0,5.9,5.905,2.03,2.03,0,0,0,2.507-.749l.093-.115,4.32.681a1.84,1.84,0,0,1,.041.184A2.571,2.571,0,0,1,750.354,2125.03Z" transform="translate(-733.001 -2108)" fill="#fff"/>
</svg>
