<svg xmlns="http://www.w3.org/2000/svg" width="22.635" height="21.373" viewBox="0 0 22.635 21.373">
  <g id="noun_Calendar_2080651" transform="translate(-2.5 -5.1)">
    <g id="Grupo_1382" data-name="Grupo 1382" transform="translate(2.5 5.1)">
      <path id="Trazado_864" data-name="Trazado 864" d="M22.493,6.385H19.351v-.4A.879.879,0,0,0,18.47,5.1a.859.859,0,0,0-.857.881v.4H10v-.4A.879.879,0,0,0,9.117,5.1a.864.864,0,0,0-.881.881v.4H5.118A2.626,2.626,0,0,0,2.5,9V23.855a2.626,2.626,0,0,0,2.618,2.618h17.4a2.626,2.626,0,0,0,2.618-2.618V9A2.662,2.662,0,0,0,22.493,6.385ZM5.118,8.147H8.26v.4a.879.879,0,0,0,.881.881.864.864,0,0,0,.881-.881v-.4h7.616v.4a.879.879,0,0,0,.881.881.864.864,0,0,0,.881-.881v-.4H22.54a.879.879,0,0,1,.881.881v1.761H4.237V9.027A.864.864,0,0,1,5.118,8.147ZM22.493,24.712H5.118a.879.879,0,0,1-.881-.881V12.5H23.373V23.855A.859.859,0,0,1,22.493,24.712Z" transform="translate(-2.5 -5.1)" fill="#fff"/>
      <path id="Trazado_865" data-name="Trazado 865" d="M20.466,43.6H18.181a.881.881,0,1,0,0,1.761h2.309a.879.879,0,0,0,.881-.881A.9.9,0,0,0,20.466,43.6Z" transform="translate(-13.777 -34.437)" fill="#fff"/>
      <path id="Trazado_866" data-name="Trazado 866" d="M44.589,43.6H42.281a.881.881,0,1,0,0,1.761h2.309a.879.879,0,0,0,.881-.881A.864.864,0,0,0,44.589,43.6Z" transform="translate(-32.141 -34.437)" fill="#fff"/>
      <path id="Trazado_867" data-name="Trazado 867" d="M68.789,43.6H66.481a.881.881,0,1,0,0,1.761h2.309a.879.879,0,0,0,.881-.881A.864.864,0,0,0,68.789,43.6Z" transform="translate(-50.582 -34.437)" fill="#fff"/>
      <path id="Trazado_868" data-name="Trazado 868" d="M20.466,58.2H18.181a.881.881,0,1,0,0,1.761h2.309a.879.879,0,0,0,.881-.881A.915.915,0,0,0,20.466,58.2Z" transform="translate(-13.777 -45.562)" fill="#fff"/>
      <path id="Trazado_869" data-name="Trazado 869" d="M44.589,58.2H42.281a.881.881,0,1,0,0,1.761h2.309a.881.881,0,1,0,0-1.761Z" transform="translate(-32.141 -45.562)" fill="#fff"/>
      <path id="Trazado_870" data-name="Trazado 870" d="M68.789,58.2H66.481a.881.881,0,1,0,0,1.761h2.309a.881.881,0,1,0,0-1.761Z" transform="translate(-50.582 -45.562)" fill="#fff"/>
      <path id="Trazado_871" data-name="Trazado 871" d="M20.466,72.9H18.181a.879.879,0,0,0-.881.881.864.864,0,0,0,.881.881h2.309a.881.881,0,1,0-.024-1.761Z" transform="translate(-13.777 -56.763)" fill="#fff"/>
      <path id="Trazado_872" data-name="Trazado 872" d="M44.589,72.9H42.281a.879.879,0,0,0-.881.881.864.864,0,0,0,.881.881h2.309a.879.879,0,0,0,.881-.881A.864.864,0,0,0,44.589,72.9Z" transform="translate(-32.141 -56.763)" fill="#fff"/>
      <path id="Trazado_873" data-name="Trazado 873" d="M68.789,72.9H66.481a.879.879,0,0,0-.881.881.864.864,0,0,0,.881.881h2.309a.879.879,0,0,0,.881-.881A.864.864,0,0,0,68.789,72.9Z" transform="translate(-50.582 -56.763)" fill="#fff"/>
    </g>
  </g>
</svg>
